<svg width="1350" height="1378" viewBox="0 0 1350 1378" fill="none" xmlns="http://www.w3.org/2000/svg">
<g filter="url(#filter0_d)">
<path d="M588.464 886.094V289.302" stroke="#05152B" stroke-linecap="round" stroke-linejoin="round"/>
<path d="M200.525 892.01H576.976L1148.91 1076.61" stroke="#05152B" stroke-linecap="round" stroke-linejoin="round"/>
<path d="M371.943 878.002H345.943V448.038H399.615L376.453 364.438H306.942L283.78 448.038H337.453V878.002H311.372C304.704 878.008 298.304 880.629 293.546 885.302C288.789 889.975 286.054 896.327 285.929 902.994C285.929 902.994 285.929 903.127 285.929 903.18C285.929 903.18 285.929 903.339 285.929 903.392C286.698 909.388 311.319 914.217 341.645 914.217C371.97 914.217 396.591 909.388 397.36 903.392C397.339 896.66 394.654 890.21 389.891 885.453C385.128 880.695 378.675 878.016 371.943 878.002V878.002Z" fill="#05152B"/>
<path d="M718.414 259.72V765.987L1099.59 828.707V197L718.414 259.72ZM1089.69 404.686L896.013 415.67V239.768L1089.69 208.939V404.686ZM896.013 434.162L1089.69 425.274V602.131L896.013 593.084V434.162ZM880.307 592.341L724.808 585.098V442.015L880.174 434.905L880.307 592.341ZM880.307 242.262V416.625L724.808 425.354V266.989L880.307 242.262ZM724.808 601.759L880.174 610.7V783.445L724.808 758.718V601.759ZM895.881 785.939V611.603L1089.56 622.746V816.768L895.881 785.939Z" fill="#05152B" stroke="#05152B" stroke-linecap="round" stroke-linejoin="round"/>
<path d="M586.952 1138.14C755.385 1138.14 891.928 1095.6 891.928 1043.13C891.928 990.661 755.385 948.124 586.952 948.124C418.518 948.124 281.976 990.661 281.976 1043.13C281.976 1095.6 418.518 1138.14 586.952 1138.14Z" fill="#21E6C1"/>
<path opacity="0.5" d="M586.952 1138.14C755.385 1138.14 891.928 1095.6 891.928 1043.13C891.928 990.661 755.385 948.124 586.952 948.124C418.518 948.124 281.976 990.661 281.976 1043.13C281.976 1095.6 418.518 1138.14 586.952 1138.14Z" fill="white"/>
<path d="M561.19 624.205C561.19 624.205 492.076 616.007 446.602 651.479C401.127 686.951 362.02 835.181 362.922 906.178C363.824 977.176 390.223 1012.59 456.604 1041.67C522.985 1070.75 646.647 1059.87 715.76 1038.04C784.874 1016.2 807.611 939.873 806.709 898.909C805.807 857.945 760.333 810.693 744.865 800.743C729.397 790.794 685.754 769.835 663.945 737.069C642.136 704.303 610.272 633.305 561.19 624.205Z" fill="#21E6C1"/>
<path opacity="0.13" d="M728.442 1033.13C702.309 1029.6 671.321 1022.52 647.867 1008.27C598.333 978.211 585.97 921.593 568.274 900.368C550.577 879.143 518.74 880.921 504.599 857.918C490.458 834.916 513.434 665.143 472.761 654.53C464.508 652.146 455.962 650.923 447.371 650.896C447.132 651.108 446.84 651.267 446.602 651.479C401.127 686.951 362.02 835.181 362.922 906.178C363.824 977.176 390.223 1012.59 456.604 1041.67C522.985 1070.75 646.647 1059.87 715.76 1038.04C720.086 1036.67 724.321 1035.03 728.442 1033.13Z" fill="#05152B"/>
<path d="M561.19 624.205C561.19 624.205 492.076 616.007 446.602 651.479C401.127 686.951 362.02 835.181 362.922 906.178C363.824 977.176 390.223 1012.59 456.604 1041.67C522.985 1070.75 646.647 1059.87 715.76 1038.04C784.874 1016.2 807.611 939.873 806.709 898.909C805.807 857.945 760.333 810.693 744.865 800.743C729.397 790.794 685.754 769.835 663.945 737.069C642.136 704.303 610.272 633.305 561.19 624.205Z" stroke="#05152B" stroke-linecap="round" stroke-linejoin="round"/>
<path d="M533.969 656.255C533.969 656.255 488.866 664.877 480.907 672.837C472.947 680.796 439.783 805.493 439.783 805.493C449.004 803.247 458.676 803.708 467.641 806.819C480.907 812.125 482.233 826.054 483.56 832.687C484.625 840.608 485.289 848.577 485.55 856.565C485.55 856.565 619.612 844.599 648.133 837.993C676.654 831.387 720.059 828.309 720.059 828.309C720.059 828.309 646.726 662.914 635.451 656.945C624.175 650.975 577.082 650.312 570.449 651.638C563.817 652.965 533.969 656.255 533.969 656.255Z" fill="#05152B" stroke="#05152B" stroke-linecap="round" stroke-linejoin="round"/>
<path d="M489.529 809.472L500.805 717.276" stroke="white" stroke-linecap="round" stroke-linejoin="round"/>
<path d="M498.152 741.818L513.408 721.919" stroke="white" stroke-linecap="round" stroke-linejoin="round"/>
<path d="M543.918 753.757C543.918 753.757 587.031 739.828 615.552 739.828" stroke="white" stroke-linecap="round" stroke-linejoin="round"/>
<path d="M584.617 715.737L581.725 737.838C581.725 737.838 589.021 737.838 589.684 741.154C589.73 742.384 589.517 743.609 589.06 744.751C588.604 745.894 587.912 746.928 587.031 747.787C587.031 747.787 607.593 759.063 610.246 772.328" stroke="white" stroke-linecap="round" stroke-linejoin="round"/>
<path d="M558.722 631.528C558.722 631.528 533.969 639.487 530.414 645.669C526.859 651.851 529.538 695.203 529.538 700.509C529.538 705.815 532.642 697.405 535.296 691.223C537.949 685.041 547.234 675.729 550.312 676.631C553.39 677.533 555.194 681.035 555.194 686.792C555.194 692.549 562.251 700.509 568.459 704.913C574.668 709.317 580.398 713.774 580.398 713.774C580.398 713.774 593.213 695.203 596.317 690.321C599.421 685.439 598.97 675.304 599.395 671.749C599.819 668.194 607.805 681.486 609.583 677.957C611.36 674.429 605.603 671.324 599.395 661.588C593.186 651.851 594.991 641.689 585.705 634.605C576.419 627.522 565.806 629.724 558.722 631.528Z" fill="white"/>
<path d="M530.414 645.642C528.079 649.781 528.45 670.422 528.981 685.439C534.632 678.169 546.279 664.426 553.018 667.026C561.614 670.343 564.904 694.778 564.904 694.778L559.094 631.528H558.723C558.723 631.528 533.969 639.487 530.414 645.642Z" fill="#21E6C1"/>
<path opacity="0.5" d="M530.414 645.642C528.079 649.781 528.45 670.422 528.981 685.439C534.632 678.169 546.279 664.426 553.018 667.026C561.614 670.343 564.904 694.778 564.904 694.778L559.094 631.528H558.723C558.723 631.528 533.969 639.487 530.414 645.642Z" fill="white"/>
<path d="M558.722 631.528C558.722 631.528 533.969 639.487 530.414 645.669C526.859 651.851 529.538 695.203 529.538 700.509C529.538 705.815 532.642 697.405 535.296 691.223C537.949 685.041 547.234 675.729 550.312 676.631C553.39 677.533 555.194 681.035 555.194 686.792C555.194 692.549 562.251 700.509 568.459 704.913C574.668 709.317 580.398 713.774 580.398 713.774C580.398 713.774 593.213 695.203 596.317 690.321C599.421 685.439 598.97 675.304 599.395 671.749C599.819 668.194 607.805 681.486 609.583 677.957C611.36 674.429 605.603 671.324 599.395 661.588C593.186 651.851 594.991 641.689 585.705 634.605C576.419 627.522 565.806 629.724 558.722 631.528Z" stroke="#05152B" stroke-linecap="round" stroke-linejoin="round"/>
<path d="M500.142 810.799C500.142 810.799 484.886 788.911 466.315 786.921C447.743 784.931 425.191 800.186 424.528 805.493C423.865 810.799 419.222 839.32 422.538 843.299C425.854 847.279 438.457 850.596 462.998 842.636C487.539 834.677 497.489 824.728 500.142 810.799Z" fill="white"/>
<path d="M438.085 842.61C438.085 842.61 432.779 827.434 435.432 822.154C438.085 816.874 448.698 808.889 455.251 800.929C461.804 792.97 439.783 805.413 438.722 800.929C437.9 797.321 450.369 790.104 455.278 787.425C439.836 790.396 425.059 801.141 424.528 805.413C423.865 810.719 419.222 839.24 422.538 843.22C424.236 845.263 428.455 847.146 435.485 847.385C437.077 844.652 438.085 842.61 438.085 842.61Z" fill="#21E6C1"/>
<path opacity="0.5" d="M438.085 842.61C438.085 842.61 432.779 827.434 435.432 822.154C438.085 816.874 448.698 808.889 455.251 800.929C461.804 792.97 439.783 805.413 438.722 800.929C437.9 797.321 450.369 790.104 455.278 787.425C439.836 790.396 425.059 801.141 424.528 805.413C423.865 810.719 419.222 839.24 422.538 843.22C424.236 845.263 428.455 847.146 435.485 847.385C437.077 844.652 438.085 842.61 438.085 842.61Z" fill="white"/>
<path d="M500.142 810.799C500.142 810.799 484.886 788.911 466.315 786.921C447.743 784.931 425.191 800.186 424.528 805.493C423.865 810.799 419.222 839.32 422.538 843.299C425.854 847.279 438.457 850.596 462.998 842.636C487.539 834.677 497.489 824.728 500.142 810.799Z" stroke="#05152B" stroke-linecap="round" stroke-linejoin="round"/>
<path d="M448.406 816.768C448.406 816.768 423.52 826.638 422.538 845.952C421.981 856.565 439.783 861.208 458.355 861.208C476.927 861.208 503.458 837.993 520.703 828.044C537.949 818.095 577.745 794.88 582.388 792.89C587.031 790.9 602.95 796.206 609.583 798.196C615.904 799.551 622.353 800.218 628.818 800.186C628.818 800.186 638.104 814.778 642.747 814.778C647.39 814.778 632.798 792.89 630.808 788.247C628.818 783.604 596.317 772.992 592.338 772.992C588.358 772.992 495.499 796.206 481.57 801.513C467.641 806.819 448.406 816.768 448.406 816.768Z" fill="white"/>
<path d="M500.433 814.009C538.347 795.039 592.338 772.992 592.338 772.992C588.358 772.992 495.499 796.206 481.57 801.513C467.641 806.819 448.406 816.768 448.406 816.768C448.406 816.768 423.52 826.638 422.538 845.952C421.981 856.565 439.783 861.208 458.355 861.208C476.927 861.208 503.458 837.993 520.703 828.044L531.157 821.995C505.819 825.205 471.939 828.23 500.433 814.009Z" fill="#21E6C1"/>
<path opacity="0.5" d="M500.433 814.009C538.347 795.039 592.338 772.992 592.338 772.992C588.358 772.992 495.499 796.206 481.57 801.513C467.641 806.819 448.406 816.768 448.406 816.768C448.406 816.768 423.52 826.638 422.538 845.952C421.981 856.565 439.783 861.208 458.355 861.208C476.927 861.208 503.458 837.993 520.703 828.044L531.157 821.995C505.819 825.205 471.939 828.23 500.433 814.009Z" fill="white"/>
<path d="M448.406 816.768C448.406 816.768 423.52 826.638 422.538 845.952C421.981 856.565 439.783 861.208 458.355 861.208C476.927 861.208 503.458 837.993 520.703 828.044C537.949 818.095 577.745 794.88 582.388 792.89C587.031 790.9 602.95 796.206 609.583 798.196C615.904 799.551 622.353 800.218 628.818 800.186C628.818 800.186 638.104 814.778 642.747 814.778C647.39 814.778 632.798 792.89 630.808 788.247C628.818 783.604 596.317 772.992 592.338 772.992C588.358 772.992 495.499 796.206 481.57 801.513C467.641 806.819 448.406 816.768 448.406 816.768Z" stroke="#05152B" stroke-linecap="round" stroke-linejoin="round"/>
<path d="M642.402 669.255L622.185 782.941L768.107 783.604L789.809 675.781C789.99 674.83 789.962 673.851 789.728 672.911C789.495 671.972 789.061 671.094 788.456 670.337C787.851 669.581 787.09 668.965 786.224 668.531C785.359 668.097 784.409 667.855 783.442 667.822L649.194 663.789C647.595 663.737 646.031 664.26 644.785 665.263C643.538 666.266 642.693 667.682 642.402 669.255V669.255Z" fill="white" stroke="#05152B" stroke-linecap="round" stroke-linejoin="round"/>
<path d="M622.185 782.941L551.135 833.191L713.638 828.548L768.106 783.604L622.185 782.941Z" fill="white"/>
<path d="M622.185 782.941L551.135 833.191L713.638 828.548L768.106 783.604L622.185 782.941Z" fill="#21E6C1"/>
<path opacity="0.5" d="M622.185 782.941L551.135 833.191L713.638 828.548L768.106 783.604L622.185 782.941Z" fill="white"/>
<path d="M622.185 782.941L551.135 833.191L713.638 828.548L768.106 783.604L622.185 782.941Z" stroke="#05152B" stroke-linecap="round" stroke-linejoin="round"/>
<path d="M675.911 832.687C675.911 832.687 734.279 781.614 791.985 764.369C849.69 747.124 861.629 749.777 860.303 775.645C858.976 801.513 831.118 936.822 812.546 971.312C793.975 1005.8 770.76 1068.81 771.423 1080.75C772.086 1092.69 794.638 1127.85 814.536 1140.45C834.435 1153.05 832.445 1168.31 819.842 1170.96C807.24 1173.61 792.648 1178.26 749.535 1150.4C706.422 1122.54 688.513 1082.74 691.166 1072.79C693.819 1062.84 721.677 1049.58 732.953 1029.68C744.229 1009.78 762.8 935.495 764.127 901.668C765.204 880.312 769.682 859.265 777.393 839.32C777.393 839.32 704.432 852.585 683.207 865.851L675.911 832.687Z" fill="white"/>
<path d="M675.911 832.687C675.911 832.687 734.279 781.614 791.985 764.369C849.69 747.124 861.629 749.777 860.303 775.645C858.976 801.513 831.118 936.822 812.546 971.312C793.975 1005.8 770.76 1068.81 771.423 1080.75C772.086 1092.69 794.638 1127.85 814.536 1140.45C834.435 1153.05 832.445 1168.31 819.842 1170.96C807.24 1173.61 792.648 1178.26 749.535 1150.4C706.422 1122.54 688.513 1082.74 691.166 1072.79C693.819 1062.84 721.677 1049.58 732.953 1029.68C744.229 1009.78 762.8 935.495 764.127 901.668C765.204 880.312 769.682 859.265 777.393 839.32C777.393 839.32 704.432 852.585 683.207 865.851L675.911 832.687Z" fill="#21E6C1"/>
<path opacity="0.5" d="M675.911 832.687C675.911 832.687 734.279 781.614 791.985 764.369C849.69 747.124 861.629 749.777 860.303 775.645C858.976 801.513 831.118 936.822 812.546 971.312C793.975 1005.8 770.76 1068.81 771.423 1080.75C772.086 1092.69 794.638 1127.85 814.536 1140.45C834.435 1153.05 832.445 1168.31 819.842 1170.96C807.24 1173.61 792.648 1178.26 749.535 1150.4C706.422 1122.54 688.513 1082.74 691.166 1072.79C693.819 1062.84 721.677 1049.58 732.953 1029.68C744.229 1009.78 762.8 935.495 764.127 901.668C765.204 880.312 769.682 859.265 777.393 839.32C777.393 839.32 704.432 852.585 683.207 865.851L675.911 832.687Z" fill="white"/>
<path d="M675.911 832.687C675.911 832.687 734.279 781.614 791.985 764.369C849.69 747.124 861.629 749.777 860.303 775.645C858.976 801.513 831.118 936.822 812.546 971.312C793.975 1005.8 770.76 1068.81 771.423 1080.75C772.086 1092.69 794.638 1127.85 814.536 1140.45C834.435 1153.05 832.445 1168.31 819.842 1170.96C807.24 1173.61 792.648 1178.26 749.535 1150.4C706.422 1122.54 688.513 1082.74 691.166 1072.79C693.819 1062.84 721.677 1049.58 732.953 1029.68C744.229 1009.78 762.8 935.495 764.127 901.668C765.204 880.312 769.682 859.265 777.393 839.32C777.393 839.32 704.432 852.585 683.207 865.851L675.911 832.687Z" stroke="#05152B" stroke-linecap="round" stroke-linejoin="round"/>
<path d="M732.953 1029.68C732.104 1031.17 731.149 1032.6 730.141 1034.03C743.861 1035.32 756.867 1040.74 767.443 1049.58C770.624 1052.34 773.652 1055.27 776.517 1058.36C786.147 1028.42 798.197 999.304 812.546 971.312C831.118 936.822 858.976 801.513 860.303 775.645C861.629 749.777 849.69 747.124 791.985 764.369C734.279 781.614 675.911 832.687 675.911 832.687L683.207 865.851C704.432 852.585 777.393 839.32 777.393 839.32C769.682 859.265 765.204 880.312 764.127 901.668C762.8 935.495 744.229 1009.78 732.953 1029.68Z" fill="white" stroke="#05152B" stroke-linecap="round" stroke-linejoin="round"/>
<path d="M732.953 1029.68C732.104 1031.17 731.149 1032.6 730.141 1034.03C743.861 1035.32 756.867 1040.74 767.443 1049.58C770.624 1052.34 773.652 1055.27 776.517 1058.36C789.225 1041.27 803.526 987.39 819.657 965.21C861.337 907.929 858.976 801.513 860.303 775.645C861.629 749.777 849.69 747.124 791.985 764.369C734.279 781.614 675.911 832.687 675.911 832.687L683.207 865.851C704.432 852.585 777.393 839.32 777.393 839.32C769.682 859.265 765.204 880.312 764.127 901.668C762.8 935.495 744.229 1009.78 732.953 1029.68Z" fill="#05152B"/>
<path opacity="0.53" d="M732.953 1029.68C732.104 1031.17 731.149 1032.6 730.141 1034.03C743.861 1035.32 756.867 1040.74 767.443 1049.58C770.624 1052.34 773.652 1055.27 776.517 1058.36C789.225 1041.27 803.526 987.39 819.657 965.21C861.337 907.929 858.976 801.513 860.303 775.645C861.629 749.777 849.69 747.124 791.985 764.369C734.279 781.614 675.911 832.687 675.911 832.687L683.207 865.851C704.432 852.585 777.393 839.32 777.393 839.32C769.682 859.265 765.204 880.312 764.127 901.668C762.8 935.495 744.229 1009.78 732.953 1029.68Z" fill="white"/>
<path opacity="0.14" d="M832.259 772.143C831.224 762.725 728.628 806.156 685.356 824.887C679.36 829.663 675.911 832.687 675.911 832.687L683.207 865.851C704.432 852.586 777.393 839.32 777.393 839.32C769.682 859.265 765.204 880.312 764.127 901.668C762.8 935.496 744.229 1009.78 732.953 1029.68C732.104 1031.17 731.149 1032.6 730.141 1034.03C737.446 1034.82 744.597 1036.67 751.366 1039.52C767.258 1005.62 784.37 966.166 792.462 935.31C807.054 879.594 833.586 784.082 832.259 772.143Z" fill="#05152B"/>
<path d="M777.392 839.32C777.392 839.32 797.291 798.86 814.536 782.278" stroke="#05152B" stroke-linecap="round" stroke-linejoin="round"/>
<path d="M732.953 1029.68C732.104 1031.17 731.149 1032.6 730.141 1034.03C743.861 1035.32 756.867 1040.74 767.443 1049.58C770.624 1052.34 773.652 1055.27 776.517 1058.36C789.225 1041.27 803.526 987.39 819.657 965.21C861.337 907.929 858.976 801.513 860.303 775.645C861.629 749.777 849.69 747.124 791.985 764.369C734.279 781.614 675.911 832.687 675.911 832.687L683.207 865.851C704.432 852.585 777.393 839.32 777.393 839.32C769.682 859.265 765.204 880.312 764.127 901.668C762.8 935.495 744.229 1009.78 732.953 1029.68Z" stroke="#05152B" stroke-linecap="round" stroke-linejoin="round"/>
<path d="M588.464 886.226C609.829 885.251 630.951 881.277 651.21 874.42C681.217 863.489 626.642 843.485 605.736 854.415C599.894 857.248 595.086 861.84 591.989 867.546C588.891 873.251 587.658 879.784 588.464 886.226V886.226Z" fill="#05152B" stroke="#05152B" stroke-linecap="round" stroke-linejoin="round"/>
<path d="M502.131 843.3C502.131 843.3 480.906 855.239 473.61 868.504C466.314 881.77 497.701 903.87 530.865 902.544C564.029 901.217 624.838 865.188 624.838 865.188C624.838 865.188 625.501 923.556 636.777 944.781C648.053 966.006 699.789 1017.74 720.35 1031.01C740.912 1044.27 809.893 1094.02 820.505 1101.98C831.118 1109.94 851.016 1124.53 855.659 1125.19C860.302 1125.86 908.722 1066.82 919.997 1046.93C931.273 1027.03 941.222 985.241 937.243 975.955C933.263 966.669 925.304 974.629 917.344 981.262C909.385 987.894 836.424 1036.31 829.791 1039.63C826.169 1041.49 822.397 1043.04 818.516 1044.27C818.516 1044.27 758.82 987.231 726.983 943.455C695.146 899.678 692.493 843.3 680.554 822.075C668.614 800.85 651.369 791.564 625.501 794.217C599.633 796.87 545.908 810.799 502.131 843.3Z" fill="white"/>
<path d="M782.778 1074.6C800.501 1087.28 815.916 1098.48 820.505 1101.92C831.118 1109.88 851.016 1124.48 855.659 1125.14C857.304 1125.38 864.468 1118.08 873.515 1107.71L797.556 1058.84L782.778 1074.6Z" fill="#21E6C1"/>
<path opacity="0.5" d="M782.778 1074.6C800.501 1087.28 815.916 1098.48 820.505 1101.92C831.118 1109.88 851.016 1124.48 855.659 1125.14C857.304 1125.38 864.468 1118.08 873.515 1107.71L797.556 1058.84L782.778 1074.6Z" fill="white"/>
<path d="M502.131 843.3C502.131 843.3 480.906 855.239 473.61 868.504C466.314 881.77 497.701 903.87 530.865 902.544C564.029 901.217 624.838 865.188 624.838 865.188C624.838 865.188 625.501 923.556 636.777 944.781C648.053 966.006 699.789 1017.74 720.35 1031.01C740.912 1044.27 809.893 1094.02 820.505 1101.98C831.118 1109.94 851.016 1124.53 855.659 1125.19C860.302 1125.86 908.722 1066.82 919.997 1046.93C931.273 1027.03 941.222 985.241 937.243 975.955C933.263 966.669 925.304 974.629 917.344 981.262C909.385 987.894 836.424 1036.31 829.791 1039.63C826.169 1041.49 822.397 1043.04 818.516 1044.27C818.516 1044.27 758.82 987.231 726.983 943.455C695.146 899.678 692.493 843.3 680.554 822.075C668.614 800.85 651.369 791.564 625.501 794.217C599.633 796.87 545.908 810.799 502.131 843.3Z" stroke="#05152B" stroke-linecap="round" stroke-linejoin="round"/>
<path d="M814.403 1040.29C800.368 1026.6 747.757 956.004 726.983 915.411C696.552 855.928 693.262 835.658 681.323 814.433C669.384 793.208 651.369 791.563 625.608 794.217C599.846 796.87 553.443 801.672 496.666 833.881C496.666 833.881 472.788 846.828 465.518 860.093C458.249 873.359 484.807 906.762 530.971 902.543C564.029 899.519 624.944 865.187 624.944 865.187C624.944 865.187 625.608 923.556 636.883 944.781C648.159 966.006 699.895 1017.74 720.456 1031.01C733.483 1039.42 765.984 1062.5 790.738 1080.28C796.84 1058.07 807.797 1045.92 814.403 1040.29Z" fill="#05152B"/>
<path opacity="0.53" d="M814.403 1040.29C800.368 1026.6 747.757 956.004 726.983 915.411C696.552 855.928 693.262 835.658 681.323 814.433C669.384 793.208 651.369 791.563 625.608 794.217C599.846 796.87 553.443 801.672 496.666 833.881C496.666 833.881 472.788 846.828 465.518 860.093C458.249 873.359 484.807 906.762 530.971 902.543C564.029 899.519 624.944 865.187 624.944 865.187C624.944 865.187 625.608 923.556 636.883 944.781C648.159 966.006 699.895 1017.74 720.456 1031.01C733.483 1039.42 765.984 1062.5 790.738 1080.28C796.84 1058.07 807.797 1045.92 814.403 1040.29Z" fill="white"/>
<path opacity="0.14" d="M681.031 945.922C661.133 895.512 673.072 794.694 617.356 807.959C576.764 817.617 502.344 851.948 464.961 869.857C469.392 885.086 493.801 905.939 530.865 902.543C563.923 899.519 624.838 865.187 624.838 865.187C624.838 865.187 625.501 923.556 636.777 944.781C648.053 966.006 699.789 1017.74 720.35 1031.01C733.377 1039.42 765.878 1062.5 790.631 1080.28C792.763 1072.51 795.874 1065.05 799.891 1058.07C750.49 1021.54 692.148 974.071 681.031 945.922Z" fill="#05152B"/>
<path d="M624.838 865.187L622.848 830.697" stroke="#05152B" stroke-linecap="round" stroke-linejoin="round"/>
<path d="M814.403 1040.29C800.368 1026.6 747.757 956.004 726.983 915.411C696.552 855.928 693.262 835.658 681.323 814.433C669.384 793.208 651.369 791.563 625.608 794.217C599.846 796.87 553.443 801.672 496.666 833.881C496.666 833.881 472.788 846.828 465.518 860.093C458.249 873.359 484.807 906.762 530.971 902.543C564.029 899.519 624.944 865.187 624.944 865.187C624.944 865.187 625.608 923.556 636.883 944.781C648.159 966.006 699.895 1017.74 720.456 1031.01C733.483 1039.42 765.984 1062.5 790.738 1080.28C796.84 1058.07 807.797 1045.92 814.403 1040.29Z" stroke="#05152B" stroke-linecap="round" stroke-linejoin="round"/>
<path d="M820.506 1101.98C831.118 1109.94 851.016 1124.53 855.659 1125.19C860.302 1125.86 908.722 1066.82 919.997 1046.93C931.273 1027.03 941.222 985.241 937.243 975.955C933.263 966.669 925.304 974.629 917.344 981.262C909.385 987.894 836.424 1036.31 829.791 1039.63C828.04 1040.51 826.449 1041.22 825.042 1041.83C823.132 1045.47 820.797 1051.09 822.389 1054.89C825.042 1060.86 836.318 1068.81 836.318 1068.81L816.234 1098.9L820.506 1101.98Z" fill="#05152B" stroke="#05152B" stroke-linecap="round" stroke-linejoin="round"/>
<path d="M919.997 1046.93C931.273 1027.03 941.222 985.241 937.243 975.955C934.934 970.649 931.3 970.994 927.081 973.594C929.867 985.984 927.081 1009.89 913.365 1035.65C901.134 1058.63 863.353 1099.33 844.384 1119.01C847.84 1121.61 851.656 1123.69 855.712 1125.19C860.302 1125.86 908.722 1066.82 919.997 1046.93Z" fill="white"/>
<path d="M856.323 1125.01L856.906 1124.72L857.066 1124.58C857.386 1124.4 857.688 1124.19 857.968 1123.95L858.286 1123.68L859.055 1123.04L859.48 1122.65L860.515 1121.69L861.151 1121.08L862.027 1120.23L862.77 1119.49L863.513 1118.75L865.396 1116.76L865.715 1116.44L866.882 1115.16L867.36 1114.66C868.739 1113.15 870.225 1111.5 871.764 1109.75V1109.62L873.409 1107.76L861.815 1100.31C855.235 1107.47 849.106 1113.94 844.224 1119.01L846.002 1120.18L846.267 1120.34L847.912 1121.37L850.565 1122.88L851.308 1123.31L852.051 1123.71L852.9 1124.13L853.457 1124.4C853.724 1124.53 853.998 1124.65 854.28 1124.74L854.678 1124.9C854.984 1125.03 855.305 1125.12 855.633 1125.17C855.798 1125.21 855.972 1125.21 856.137 1125.17L856.323 1125.01Z" fill="#21E6C1"/>
<path opacity="0.5" d="M856.323 1125.01L856.906 1124.72L857.066 1124.58C857.386 1124.4 857.688 1124.19 857.968 1123.95L858.286 1123.68L859.055 1123.04L859.48 1122.65L860.515 1121.69L861.151 1121.08L862.027 1120.23L862.77 1119.49L863.513 1118.75L865.396 1116.76L865.715 1116.44L866.882 1115.16L867.36 1114.66C868.739 1113.15 870.225 1111.5 871.764 1109.75V1109.62L873.409 1107.76L861.815 1100.31C855.235 1107.47 849.106 1113.94 844.224 1119.01L846.002 1120.18L846.267 1120.34L847.912 1121.37L850.565 1122.88L851.308 1123.31L852.051 1123.71L852.9 1124.13L853.457 1124.4C853.724 1124.53 853.998 1124.65 854.28 1124.74L854.678 1124.9C854.984 1125.03 855.305 1125.12 855.633 1125.17C855.798 1125.21 855.972 1125.21 856.137 1125.17L856.323 1125.01Z" fill="white"/>
<path d="M919.997 1046.93C931.273 1027.03 941.222 985.241 937.243 975.955C934.934 970.649 931.3 970.994 927.081 973.594C929.867 985.984 927.081 1009.89 913.365 1035.65C901.134 1058.63 863.353 1099.33 844.384 1119.01C847.84 1121.61 851.656 1123.69 855.712 1125.19C860.302 1125.86 908.722 1066.82 919.997 1046.93Z" stroke="#05152B" stroke-linecap="round" stroke-linejoin="round"/>
<path d="M814.536 1140.45C794.638 1127.85 772.086 1092.69 771.423 1080.75C771.393 1079.45 771.5 1078.14 771.741 1076.85C767.78 1076.98 763.957 1078.34 760.81 1080.75C752.644 1073.34 744.003 1066.48 734.943 1060.19C727.646 1055.99 719.47 1053.55 711.065 1053.05C701.434 1061.01 692.493 1067.38 691.087 1072.79C688.433 1082.74 706.342 1122.54 749.455 1150.4C792.568 1178.26 807.16 1173.61 819.763 1170.96C832.365 1168.31 834.434 1153.05 814.536 1140.45Z" fill="#05152B" stroke="#05152B" stroke-linecap="round" stroke-linejoin="round"/>
<path d="M814.536 1140.45C807.942 1135.98 801.997 1130.62 796.866 1124.53C783.176 1118.69 764.896 1111.26 748.871 1101.29C731.626 1090.68 735.606 1084.04 725.656 1074.09C718.015 1066.45 702.999 1065.47 696.472 1065.42C694.116 1067.39 692.292 1069.91 691.166 1072.77C688.513 1082.72 706.421 1122.51 749.534 1150.37C792.648 1178.23 807.24 1173.59 819.842 1170.93C832.444 1168.28 834.434 1153.05 814.536 1140.45Z" fill="white"/>
<path d="M814.536 1140.45C807.942 1135.98 801.997 1130.62 796.866 1124.53C783.176 1118.69 764.896 1111.26 748.871 1101.29C731.626 1090.68 735.606 1084.04 725.656 1074.09C718.015 1066.45 702.999 1065.47 696.472 1065.42C694.116 1067.39 692.292 1069.91 691.166 1072.77C688.513 1082.72 706.421 1122.51 749.534 1150.37C792.648 1178.23 807.24 1173.59 819.842 1170.93C832.444 1168.28 834.434 1153.05 814.536 1140.45Z" fill="#21E6C1"/>
<path opacity="0.5" d="M814.536 1140.45C807.942 1135.98 801.997 1130.62 796.866 1124.53C783.176 1118.69 764.896 1111.26 748.871 1101.29C731.626 1090.68 735.606 1084.04 725.656 1074.09C718.015 1066.45 702.999 1065.47 696.472 1065.42C694.116 1067.39 692.292 1069.91 691.166 1072.77C688.513 1082.72 706.421 1122.51 749.534 1150.37C792.648 1178.23 807.24 1173.59 819.842 1170.93C832.444 1168.28 834.434 1153.05 814.536 1140.45Z" fill="white"/>
<path d="M814.536 1140.45C807.942 1135.98 801.997 1130.62 796.866 1124.53C783.176 1118.69 764.896 1111.26 748.871 1101.29C731.626 1090.68 735.606 1084.04 725.656 1074.09C718.015 1066.45 702.999 1065.47 696.472 1065.42C694.116 1067.39 692.292 1069.91 691.166 1072.77C688.513 1082.72 706.421 1122.51 749.534 1150.37C792.648 1178.23 807.24 1173.59 819.842 1170.93C832.444 1168.28 834.434 1153.05 814.536 1140.45Z" stroke="#05152B" stroke-linecap="round" stroke-linejoin="round"/>
<path d="M817.852 1145.09C800.607 1135.14 765.453 1128.51 742.902 1113.25C720.35 1098 726.32 1084.73 709.738 1074.12C707.088 1072.14 703.914 1070.98 700.612 1070.79C697.309 1070.61 694.024 1071.39 691.166 1073.06C688.858 1083.41 706.82 1122.75 749.535 1150.4C792.25 1178.04 807.24 1173.61 819.842 1170.96C828.226 1169.18 831.861 1161.86 827.536 1153.45C824.83 1150.11 821.551 1147.28 817.852 1145.09V1145.09Z" fill="#05152B"/>
<path opacity="0.53" d="M817.852 1145.09C800.607 1135.14 765.453 1128.51 742.902 1113.25C720.35 1098 726.32 1084.73 709.738 1074.12C707.088 1072.14 703.914 1070.98 700.612 1070.79C697.309 1070.61 694.024 1071.39 691.166 1073.06C688.858 1083.41 706.82 1122.75 749.535 1150.4C792.25 1178.04 807.24 1173.61 819.842 1170.96C828.226 1169.18 831.861 1161.86 827.536 1153.45C824.83 1150.11 821.551 1147.28 817.852 1145.09V1145.09Z" fill="white"/>
<path d="M817.852 1145.09C800.607 1135.14 765.453 1128.51 742.902 1113.25C720.35 1098 726.32 1084.73 709.738 1074.12C707.088 1072.14 703.914 1070.98 700.612 1070.79C697.309 1070.61 694.024 1071.39 691.166 1073.06C688.858 1083.41 706.82 1122.75 749.535 1150.4C792.25 1178.04 807.24 1173.61 819.842 1170.96C828.226 1169.18 831.861 1161.86 827.536 1153.45C824.83 1150.11 821.551 1147.28 817.852 1145.09V1145.09Z" stroke="#05152B" stroke-linecap="round" stroke-linejoin="round"/>
<path d="M487.327 1018.22C487.327 1018.22 500.062 1002.75 501.866 1014.58C503.67 1026.42 500.964 1048.23 491.864 1056.4C482.764 1064.57 478.227 1051.86 478.227 1051.86L483.692 1044.59C483.692 1044.59 488.229 1053.69 491.864 1039.13C495.499 1024.56 484.595 1026.39 484.595 1026.39L487.327 1018.22Z" fill="white" stroke="#05152B" stroke-linecap="round" stroke-linejoin="round"/>
<path d="M477.59 1076.43C470.055 1082 445.487 1082 437.979 1076.43C422.06 1064.62 424.714 1007.58 424.714 1007.58H490.67C490.67 1007.58 493.535 1064.62 477.59 1076.43Z" fill="white" stroke="#05152B" stroke-linecap="round" stroke-linejoin="round"/>
<path d="M431.93 996.384C431.93 989.221 438.589 989.221 438.589 982.031C438.589 974.841 431.93 974.841 431.93 967.678C431.93 960.514 438.589 960.488 438.589 953.298C438.589 946.108 431.93 946.108 431.93 938.918C431.93 931.728 438.589 931.728 438.589 924.538" stroke="#05152B" stroke-linecap="round" stroke-linejoin="round"/>
<path d="M454.72 996.384C454.72 991.078 461.38 991.078 461.38 985.48C461.38 979.882 454.72 980.041 454.72 974.575C454.72 969.11 461.38 969.137 461.38 963.671C461.38 958.206 454.72 958.206 454.72 952.74C454.72 947.275 461.38 947.301 461.38 941.836" stroke="#05152B" stroke-linecap="round" stroke-linejoin="round"/>
<path d="M479.792 996.384C479.792 989.221 486.425 989.221 486.425 982.031C486.425 974.841 479.792 974.841 479.792 967.678C479.792 960.514 486.425 960.488 486.425 953.298C486.425 946.108 479.792 946.108 479.792 938.918C479.792 931.728 486.425 931.728 486.425 924.538" stroke="#05152B" stroke-linecap="round" stroke-linejoin="round"/>
<path d="M490.723 1007.58C490.723 1009.25 475.972 1010.58 457.745 1010.58C439.518 1010.58 424.767 1009.25 424.767 1007.58C424.767 1005.91 439.518 1004.58 457.745 1004.58C475.972 1004.58 490.723 1005.91 490.723 1007.58Z" fill="white" stroke="#05152B" stroke-linecap="round" stroke-linejoin="round"/>
<path d="M551.612 597.037C551.612 597.037 554.716 630.546 556.016 641.132C557.316 651.718 560.261 682.122 563.312 692.178C566.363 702.233 582.998 719.717 584.537 715.684C586.076 711.652 594.354 684.298 591.064 667.928C587.774 651.558 586.766 637.577 588.809 633.438C590.852 629.299 598.201 624.656 598.201 624.656C589.641 620.272 581.324 615.427 573.288 610.143C561.561 602.343 553.257 593.508 551.612 597.037Z" fill="white"/>
<path d="M594.195 626.46L591.542 621.313C586.66 618.66 579.868 614.733 573.421 610.409C561.614 602.449 553.31 593.508 551.665 597.143C551.665 597.143 554.769 630.652 556.069 641.238C557.369 651.824 560.314 682.229 563.365 692.284C564.406 695.225 565.843 698.009 567.637 700.562C564.427 680.557 567.902 644.422 567.902 644.422L594.195 626.46Z" fill="#21E6C1"/>
<path opacity="0.5" d="M594.195 626.46L591.542 621.313C586.66 618.66 579.868 614.733 573.421 610.409C561.614 602.449 553.31 593.508 551.665 597.143C551.665 597.143 554.769 630.652 556.069 641.238C557.369 651.824 560.314 682.229 563.365 692.284C564.406 695.225 565.843 698.009 567.637 700.562C564.427 680.557 567.902 644.422 567.902 644.422L594.195 626.46Z" fill="white"/>
<path d="M551.612 597.037C551.612 597.037 554.716 630.546 556.016 641.132C557.316 651.718 560.261 682.122 563.312 692.178C566.363 702.233 582.998 719.717 584.537 715.684C586.076 711.652 594.354 684.298 591.064 667.928C587.774 651.558 586.766 637.577 588.809 633.438C590.852 629.299 598.201 624.656 598.201 624.656C589.641 620.272 581.324 615.427 573.288 610.143C561.561 602.343 553.257 593.508 551.612 597.037Z" stroke="#05152B" stroke-linecap="round" stroke-linejoin="round"/>
<path d="M550.392 601.892C550.392 601.892 569.494 617.811 584.139 623.648C598.785 629.485 621.283 629.113 624.493 621.499C627.704 613.884 618.922 553.579 611.36 537.713C603.799 521.848 595.734 521.582 582.388 520.362C569.043 519.142 542.353 530.019 537.657 542.913C532.961 555.808 538.32 574.061 542.194 584.886C544.242 590.86 546.994 596.569 550.392 601.892V601.892Z" fill="white"/>
<path d="M584.696 601.176C577.931 581.119 576.233 549.546 576.233 541.136C576.233 534.636 593.16 527.499 600.88 524.581C595.813 521.45 589.923 521.052 582.309 520.362C569.043 519.168 542.273 530.02 537.577 542.914C532.881 555.808 538.24 574.061 542.114 584.886C544.162 590.86 546.914 596.569 550.312 601.892C550.312 601.892 569.415 617.811 584.06 623.648C594.21 627.489 605.203 628.542 615.897 626.699C605.417 622.746 589.207 614.574 584.696 601.176Z" fill="#21E6C1"/>
<path opacity="0.5" d="M584.696 601.176C577.931 581.119 576.233 549.546 576.233 541.136C576.233 534.636 593.16 527.499 600.88 524.581C595.813 521.45 589.923 521.052 582.309 520.362C569.043 519.168 542.273 530.02 537.577 542.914C532.881 555.808 538.24 574.061 542.114 584.886C544.162 590.86 546.914 596.569 550.312 601.892C550.312 601.892 569.415 617.811 584.06 623.648C594.21 627.489 605.203 628.542 615.897 626.699C605.417 622.746 589.207 614.574 584.696 601.176Z" fill="white"/>
<path d="M550.392 601.892C550.392 601.892 569.494 617.811 584.139 623.648C598.785 629.485 621.283 629.113 624.493 621.499C627.704 613.884 618.922 553.579 611.36 537.713C603.799 521.848 595.734 521.582 582.388 520.362C569.043 519.142 542.353 530.019 537.657 542.913C532.961 555.808 538.32 574.061 542.194 584.886C544.242 590.86 546.994 596.569 550.392 601.892V601.892Z" stroke="#05152B" stroke-linecap="round" stroke-linejoin="round"/>
<path d="M612.793 562.546C613.111 570.187 608.309 576.581 602.18 576.82C596.052 577.059 590.692 571.089 590.401 563.555C590.109 556.02 594.884 549.52 601.013 549.254C607.142 548.989 612.501 554.826 612.793 562.546Z" stroke="#05152B" stroke-linecap="round" stroke-linejoin="round"/>
<path d="M627.81 559.575C628.128 567.216 625.661 573.504 622.318 573.637C618.975 573.769 616.003 567.694 615.711 560.053C615.42 552.412 617.887 546.097 621.23 545.965C624.573 545.832 627.518 551.934 627.81 559.575Z" stroke="#05152B" stroke-linecap="round" stroke-linejoin="round"/>
<path d="M613.589 559.734C613.589 559.734 635.504 563.9 633.381 569.179C631.259 574.459 616.454 580.163 616.454 580.163" fill="white"/>
<path d="M613.589 559.734C613.589 559.734 635.504 563.9 633.381 569.179C631.259 574.459 616.454 580.163 616.454 580.163" stroke="#05152B" stroke-linecap="round" stroke-linejoin="round"/>
<path d="M612.236 557.24C612.236 557.24 612.554 554.587 615.924 556.259" stroke="#05152B" stroke-linecap="round" stroke-linejoin="round"/>
<path d="M589.711 564.616L549.861 580.296" stroke="#05152B" stroke-linecap="round" stroke-linejoin="round"/>
<path d="M590.241 551.722C591.08 549.825 592.483 548.232 594.258 547.16C596.033 546.087 598.095 545.586 600.164 545.726" stroke="#05152B" stroke-width="2" stroke-linecap="round" stroke-linejoin="round"/>
<path d="M616.773 545.911L610.644 548.22" stroke="#05152B" stroke-width="2" stroke-linecap="round" stroke-linejoin="round"/>
<path d="M597.829 590.404C597.829 590.404 605.789 588.335 610.299 593.057" stroke="#05152B" stroke-linecap="round" stroke-linejoin="round"/>
<path d="M602.95 563.926C603.322 566.579 602.95 568.861 601.862 568.993C600.775 569.126 599.82 567.083 599.448 564.403C599.077 561.724 599.581 559.495 600.562 559.363C601.544 559.23 602.605 561.273 602.95 563.926Z" fill="#05152B"/>
<path d="M553.575 580.402C553.575 580.402 550.922 585.708 558.404 585.973C565.886 586.239 570.98 582.604 567.345 578.014C563.71 573.424 558.324 569.126 563.869 563.13C569.415 557.134 580.186 552.093 574.137 545.407C568.088 538.721 545.828 544.797 551.4 539.385C556.971 533.972 582.707 528.321 594.274 529.037C605.842 529.754 627.438 520.786 632.187 509.059C636.936 497.333 630.304 475.657 614.756 476.824C599.209 477.991 587.615 491.761 580.717 492.743C573.819 493.724 559.678 486.057 547.818 492.743C535.959 499.429 535.561 518.637 534.553 520.998C533.544 523.36 517.466 526.862 514.628 543.125C513.562 549.682 514.017 556.396 515.959 562.749C517.9 569.102 521.275 574.924 525.824 579.765C532.483 587.008 535.481 589.767 535.481 589.767L553.575 580.402Z" fill="#05152B" stroke="#05152B" stroke-linecap="round" stroke-linejoin="round"/>
<path d="M519.828 551.006C519.689 553.474 520.28 555.928 521.526 558.063" stroke="white" stroke-width="0.75" stroke-linecap="round" stroke-linejoin="round"/>
<path d="M587.456 509.007C587.456 509.007 581.672 496.351 596.423 496.351C611.175 496.351 613.297 514.923 598.015 521.662C582.733 528.401 549.49 530.099 531.555 538.032C528.035 539.409 524.903 541.622 522.428 544.479" stroke="white" stroke-width="0.75" stroke-linecap="round" stroke-linejoin="round"/>
<path d="M560.739 553.95C555.433 555.861 548.561 558.514 541.584 561.751C526.806 568.622 529.963 575.467 529.963 575.467" stroke="white" stroke-width="0.75" stroke-linecap="round" stroke-linejoin="round"/>
<path d="M570.582 550.687C570.582 550.687 569.282 551.058 567.08 551.775" stroke="white" stroke-width="0.75" stroke-linecap="round" stroke-linejoin="round"/>
<path d="M556.096 586.08C556.096 586.08 547.526 573.716 538.506 578.678C529.485 583.639 536.49 601.282 541.928 607.411C547.367 613.54 557.847 602.105 558.935 599.239" fill="white"/>
<path d="M556.096 586.08C556.096 586.08 547.526 573.716 538.506 578.678C529.485 583.639 536.49 601.282 541.928 607.411C547.367 613.54 557.847 602.105 558.935 599.239" fill="#21E6C1"/>
<path opacity="0.5" d="M556.096 586.08C556.096 586.08 547.526 573.716 538.506 578.678C529.485 583.639 536.49 601.282 541.928 607.411C547.367 613.54 557.847 602.105 558.935 599.239" fill="white"/>
<path d="M556.096 586.08C556.096 586.08 547.526 573.716 538.506 578.678C529.485 583.639 536.49 601.282 541.928 607.411C547.367 613.54 557.847 602.105 558.935 599.239" stroke="#05152B" stroke-linecap="round" stroke-linejoin="round"/>
<path d="M447.875 574.804H257.7C250.198 574.804 244.116 580.885 244.116 588.388V727.411C244.116 734.913 250.198 740.995 257.7 740.995H447.875C455.377 740.995 461.459 734.913 461.459 727.411V588.388C461.459 580.885 455.377 574.804 447.875 574.804Z" fill="white" stroke="#05152B" stroke-linecap="round" stroke-linejoin="round"/>
<path d="M457.32 694.353L584.67 727.517L457.32 665.169" fill="white"/>
<path d="M457.32 694.353L584.67 727.517L457.32 665.169" stroke="#05152B" stroke-linecap="round" stroke-linejoin="round"/>
<path d="M312.805 590.775H261.679V725.023H312.805V590.775Z" fill="#21E6C1" stroke="#05152B" stroke-linecap="round" stroke-linejoin="round"/>
<path d="M450.183 590.775H443.789V725.023H450.183V590.775Z" fill="#21E6C1" stroke="#05152B" stroke-linecap="round" stroke-linejoin="round"/>
<path d="M450.183 652.142H443.789V663.604H450.183V652.142Z" fill="#05152B" stroke="#05152B" stroke-linecap="round" stroke-linejoin="round"/>
<path d="M328.803 593.959H429.489" stroke="#05152B" stroke-linecap="round" stroke-linejoin="round"/>
<path d="M328.803 608.339H429.489" stroke="#05152B" stroke-linecap="round" stroke-linejoin="round"/>
<path d="M328.803 622.746H429.489" stroke="#05152B" stroke-linecap="round" stroke-linejoin="round"/>
<path d="M328.803 637.125H429.489" stroke="#05152B" stroke-linecap="round" stroke-linejoin="round"/>
<path d="M328.803 672.279H429.489" stroke="#05152B" stroke-linecap="round" stroke-linejoin="round"/>
<path d="M328.803 685.067H429.489" stroke="#05152B" stroke-linecap="round" stroke-linejoin="round"/>
<path d="M328.803 697.855H429.489" stroke="#05152B" stroke-linecap="round" stroke-linejoin="round"/>
<path d="M328.803 724.386H429.489" stroke="#05152B" stroke-linecap="round" stroke-linejoin="round"/>
<path d="M261.679 724.997L312.832 590.775" stroke="#05152B" stroke-linecap="round" stroke-linejoin="round"/>
<path d="M1032.22 1096.51C1056.74 1096.51 1076.61 1087.6 1076.61 1076.61C1076.61 1065.62 1056.74 1056.72 1032.22 1056.72C1007.71 1056.72 987.838 1065.62 987.838 1076.61C987.838 1087.6 1007.71 1096.51 1032.22 1096.51Z" fill="#21E6C1"/>
<path opacity="0.5" d="M1032.22 1096.51C1056.74 1096.51 1076.61 1087.6 1076.61 1076.61C1076.61 1065.62 1056.74 1056.72 1032.22 1056.72C1007.71 1056.72 987.838 1065.62 987.838 1076.61C987.838 1087.6 1007.71 1096.51 1032.22 1096.51Z" fill="white"/>
<path d="M980.303 782.171C985.052 784.24 996.673 783.975 996.673 783.975C996.673 783.975 994.179 776.361 994.02 776.016C991.366 770.71 983.407 761.875 976.854 762.75C975.778 762.945 974.753 763.36 973.844 763.969C972.935 764.578 972.162 765.368 971.572 766.289C970.982 767.21 970.588 768.243 970.415 769.323C970.242 770.403 970.293 771.507 970.566 772.567C971.548 777.024 976.244 780.393 980.303 782.171Z" fill="#05152B"/>
<path d="M1132.49 742.613C1125.91 741.924 1118.08 750.918 1115.67 756.33C1115.45 756.808 1113.01 764.475 1113.17 764.475H1113.3C1112.06 765.881 1110.65 767.42 1109.35 769.118C1106.7 772.275 1103.89 775.857 1101.02 779.996C1097.88 784.402 1095 788.991 1092.4 793.739C1089.45 799.045 1086.98 804.603 1085.02 810.347C1085.01 810.417 1085.01 810.49 1085.02 810.56C1085.02 808.623 1085.02 803.184 1085.02 802.76C1084.25 796.923 1079.34 786.018 1072.82 784.825C1071.73 784.677 1070.63 784.753 1069.58 785.05C1068.53 785.347 1067.55 785.857 1066.7 786.549C1065.86 787.241 1065.16 788.1 1064.66 789.072C1064.16 790.044 1063.87 791.109 1063.8 792.2C1063.43 796.843 1066.79 801.513 1070.08 804.458C1073.8 807.774 1084.09 810.984 1084.92 811.223C1083.08 817.119 1081.63 823.128 1080.56 829.211C1079.93 832.766 1079.42 836.348 1078.92 839.956C1078.92 838.258 1078.92 836.773 1078.92 836.56C1078.15 830.697 1073.24 819.819 1066.74 818.625C1065.66 818.473 1064.56 818.546 1063.5 818.839C1062.45 819.133 1061.47 819.64 1060.62 820.329C1059.77 821.019 1059.07 821.876 1058.57 822.847C1058.07 823.819 1057.77 824.883 1057.69 825.974C1057.32 830.644 1060.69 835.287 1063.98 838.232C1067.27 841.177 1076.05 844.148 1078.39 844.891C1078.23 846.271 1078.04 847.544 1077.86 849.03C1077.06 855.663 1076.32 862.296 1075.36 868.796C1075.02 871.077 1074.62 873.306 1074.22 875.535C1074.22 874.049 1074.22 872.881 1074.22 872.616C1073.45 866.753 1068.55 855.875 1062.02 854.655C1060.94 854.507 1059.83 854.583 1058.78 854.88C1057.73 855.177 1056.75 855.687 1055.9 856.379C1055.06 857.071 1054.36 857.93 1053.86 858.902C1053.36 859.874 1053.07 860.939 1053 862.03C1052.63 866.7 1056 871.343 1059.29 874.288C1062.58 877.233 1070.51 879.912 1073.27 880.788C1072.79 883.069 1072.29 885.351 1071.73 887.553C1071.3 889.039 1070.99 890.498 1070.48 891.957C1069.98 893.417 1069.55 894.876 1069.08 896.308C1068.09 898.962 1067.09 901.88 1066.05 904.507C1065.34 906.364 1064.62 908.115 1063.93 909.813C1064.27 907.531 1064.88 903.074 1064.88 902.702C1064.82 897.502 1063.42 892.404 1060.83 887.898C1060.86 887.324 1060.86 886.748 1060.83 886.174C1060.67 885.092 1060.29 884.054 1059.71 883.125C1059.14 882.196 1058.38 881.395 1057.48 880.773C1056.58 880.151 1055.56 879.72 1054.49 879.508C1053.42 879.296 1052.32 879.307 1051.25 879.541C1044.85 881.239 1040.79 892.461 1040.48 898.351C1040.48 898.723 1040.69 902.517 1040.87 904.905C1040.56 903.525 1040.26 902.251 1039.92 900.739C1039.23 897.9 1038.49 895.088 1037.69 892.09C1037.24 890.631 1036.81 889.172 1036.36 887.712C1035.91 886.253 1035.33 884.741 1034.82 883.229C1033.55 879.78 1032.17 876.331 1030.55 872.881C1033.05 872.298 1041.8 870.069 1045.33 867.363C1048.86 864.657 1052.55 860.279 1052.49 855.61C1052.52 854.516 1052.32 853.429 1051.89 852.42C1051.47 851.411 1050.84 850.501 1050.05 849.751C1049.25 849 1048.31 848.425 1047.28 848.063C1046.24 847.701 1045.15 847.561 1044.06 847.65C1037.45 848.367 1031.75 858.846 1030.55 864.63C1030.55 865.002 1030.1 869.247 1029.92 871.581C1028.99 869.512 1028.06 867.469 1027.05 865.4C1024.11 859.483 1020.95 853.593 1017.82 847.677C1016.84 845.873 1015.91 844.069 1014.98 842.238C1015.85 842.052 1026.33 839.585 1030.26 836.587C1033.76 833.934 1037.48 829.503 1037.45 824.833C1037.45 823.744 1037.23 822.667 1036.8 821.666C1036.37 820.666 1035.74 819.766 1034.94 819.019C1034.15 818.273 1033.21 817.698 1032.19 817.329C1031.16 816.96 1030.07 816.805 1028.99 816.874C1022.41 817.59 1016.7 828.07 1015.51 833.854C1015.51 834.279 1014.87 840.407 1014.79 841.973C1012.72 837.966 1010.71 834.013 1008.85 829.954C1006.35 824.544 1004.19 818.979 1002.4 813.292C1002.8 813.292 1013.76 810.639 1017.79 807.615C1021.29 804.962 1025.01 800.531 1024.98 795.862C1024.98 794.772 1024.76 793.695 1024.33 792.694C1023.9 791.694 1023.27 790.793 1022.47 790.047C1021.68 789.301 1020.74 788.726 1019.72 788.357C1018.69 787.988 1017.6 787.833 1016.52 787.902C1009.94 788.618 1004.23 799.098 1003.04 804.882C1003.04 805.36 1002.35 811.939 1002.32 813.133C1002.32 812.788 1002.09 812.47 1001.98 812.125C1000.34 806.365 999.222 800.469 998.636 794.508C998.265 791.245 998.105 788.061 997.999 784.984C1000.1 784.745 1009.59 783.471 1013.55 781.084C1017.5 778.696 1021.51 774.849 1021.98 770.179C1022.11 769.094 1022.02 767.993 1021.7 766.946C1021.39 765.9 1020.86 764.929 1020.15 764.095C1019.44 763.261 1018.57 762.582 1017.59 762.1C1016.61 761.617 1015.54 761.342 1014.45 761.291C1007.82 761.291 1001 771.081 999.167 776.679C999.167 776.998 998.424 780.208 997.973 782.569C997.973 781.163 997.973 779.731 997.973 778.404C997.973 773.416 998.291 768.826 998.61 764.767C998.822 762.459 999.034 760.389 999.273 758.426C1001.18 757.126 1008.82 751.714 1011.19 747.814C1013.55 743.913 1015.38 738.607 1013.65 734.283C1013.29 733.245 1012.71 732.296 1011.95 731.498C1011.19 730.7 1010.28 730.071 1009.26 729.653C1008.24 729.234 1007.15 729.036 1006.05 729.07C1004.95 729.104 1003.87 729.371 1002.88 729.852C996.991 732.876 995.452 744.709 996.407 750.546C996.407 751.05 998.716 758.771 998.822 758.718C998.583 760.575 998.318 762.591 998.079 764.767C997.681 768.826 997.256 773.416 997.15 778.457C996.964 783.863 997.088 789.276 997.522 794.668C997.999 800.715 999.011 806.708 1000.55 812.576C1000.53 812.646 1000.53 812.718 1000.55 812.788C999.512 811.17 996.434 806.686 996.169 806.368C992.295 801.884 982.213 795.543 976.111 798.117C975.126 798.589 974.248 799.259 973.533 800.085C972.818 800.911 972.281 801.876 971.955 802.919C971.629 803.962 971.521 805.061 971.638 806.147C971.755 807.233 972.095 808.284 972.635 809.233C974.891 813.346 980.276 815.362 984.654 815.999C989.562 816.715 999.936 813.717 1000.76 813.478C1002.47 819.402 1004.57 825.207 1007.05 830.856C1008.48 834.173 1010.02 837.462 1011.61 840.726C1010.65 839.346 1009.81 838.073 1009.67 838.073C1005.8 833.615 995.691 827.248 989.615 829.821C988.627 830.293 987.746 830.965 987.028 831.793C986.311 832.621 985.772 833.588 985.446 834.634C985.119 835.68 985.013 836.783 985.132 837.872C985.252 838.961 985.595 840.014 986.14 840.964C988.395 845.05 993.781 847.093 998.132 847.73C1002.48 848.367 1011.4 845.979 1013.81 845.316C1014.42 846.563 1015.03 847.809 1015.67 849.056C1018.67 855.053 1021.69 860.996 1024.48 866.912C1025.46 869.008 1026.33 871.104 1027.13 873.2C1026.31 871.953 1025.59 870.945 1025.46 870.785C1021.59 866.328 1011.48 859.961 1005.4 862.534C1004.41 863.006 1003.53 863.677 1002.81 864.506C1002.1 865.334 1001.56 866.301 1001.23 867.347C1000.91 868.393 1000.8 869.496 1000.92 870.585C1001.04 871.674 1001.38 872.727 1001.93 873.677C1004.18 877.763 1009.57 879.78 1013.92 880.416C1018.27 881.053 1026.39 878.904 1029.17 878.135C1030.02 880.31 1030.9 882.486 1031.61 884.635C1032.09 886.094 1032.65 887.474 1033.02 888.986C1033.39 890.498 1033.84 891.931 1034.27 893.39C1034.93 896.229 1035.65 899.147 1036.26 901.907C1036.68 903.843 1037.05 905.674 1037.42 907.531C1036.47 905.435 1034.51 901.402 1034.32 901.084C1031.16 896.07 1022.14 888.243 1015.75 889.888C1014.69 890.184 1013.7 890.701 1012.85 891.406C1012.01 892.111 1011.32 892.987 1010.83 893.978C1010.35 894.968 1010.08 896.049 1010.05 897.151C1010.01 898.252 1010.21 899.348 1010.63 900.368C1012.22 904.745 1017.23 907.558 1021.45 908.858C1026.12 910.264 1036.42 908.858 1037.69 908.858C1038.3 911.935 1038.88 914.933 1039.36 917.772C1041.11 927.589 1042.17 935.84 1042.84 941.65C1042.84 942.685 1043.05 943.587 1043.16 944.463H1023.23L1029.62 1069.42C1029.86 1074 1031.85 1078.31 1035.17 1081.46C1038.49 1084.62 1042.9 1086.38 1047.48 1086.38V1086.38C1052.06 1086.38 1056.46 1084.62 1059.78 1081.46C1063.1 1078.31 1065.08 1074 1065.31 1069.42L1071.73 944.463H1053.16C1053.29 944.171 1053.42 943.905 1053.58 943.614C1056.24 938.307 1059.66 930.666 1063.48 921.354C1064.67 918.409 1065.92 915.225 1067.14 911.962C1068.39 912.227 1078.57 914.297 1083.32 913.209C1087.65 912.254 1092.85 909.813 1094.78 905.568C1095.26 904.578 1095.52 903.501 1095.55 902.404C1095.59 901.308 1095.4 900.216 1094.99 899.197C1094.59 898.179 1093.98 897.255 1093.2 896.483C1092.41 895.712 1091.48 895.111 1090.46 894.717C1084.17 892.621 1074.54 899.758 1071.09 904.507C1070.88 904.772 1069 908.088 1067.83 910.184C1068.31 908.831 1068.81 907.531 1069.32 906.152C1070.32 903.498 1071.23 900.686 1072.23 897.715C1072.66 896.282 1073.11 894.823 1073.53 893.337C1073.96 891.851 1074.33 890.286 1074.73 888.747C1075.58 885.165 1076.27 881.504 1076.88 877.79C1079.26 878.665 1087.81 881.637 1092.24 881.318C1096.67 881 1102.16 879.382 1104.71 875.482C1105.32 874.574 1105.74 873.55 1105.93 872.473C1106.13 871.397 1106.1 870.291 1105.86 869.226C1105.61 868.16 1105.14 867.157 1104.49 866.28C1103.83 865.402 1103 864.669 1102.05 864.126C1096.16 861.075 1085.63 866.779 1081.44 870.839C1081.17 871.104 1078.49 874.447 1077.06 876.304C1077.43 874.049 1077.78 871.82 1078.07 869.565C1078.89 862.985 1079.5 856.299 1080.14 849.667L1080.78 843.591C1081.63 843.909 1091.71 847.65 1096.7 847.305C1101.1 846.987 1106.62 845.369 1109.16 841.469C1109.78 840.561 1110.19 839.537 1110.39 838.46C1110.59 837.384 1110.56 836.278 1110.31 835.213C1110.06 834.147 1109.6 833.144 1108.94 832.267C1108.29 831.389 1107.46 830.656 1106.51 830.113C1100.62 827.062 1090.06 832.766 1085.9 836.826C1085.58 837.144 1081.73 841.946 1080.83 843.22C1081.28 838.736 1081.81 834.279 1082.5 829.954C1083.39 824.051 1084.66 818.211 1086.29 812.47C1086.69 812.629 1097.2 816.582 1102.21 816.211C1106.62 815.919 1112.14 814.301 1114.68 810.374C1115.29 809.466 1115.71 808.442 1115.91 807.366C1116.11 806.289 1116.08 805.184 1115.83 804.118C1115.58 803.053 1115.12 802.05 1114.46 801.172C1113.81 800.295 1112.98 799.562 1112.03 799.019C1106.14 795.994 1095.61 801.672 1091.42 805.758C1091.1 806.076 1086.96 811.25 1086.29 812.231C1086.29 811.913 1086.45 811.541 1086.56 811.223C1088.37 805.509 1090.69 799.968 1093.48 794.668C1094.97 791.723 1096.59 788.99 1098.21 786.39C1100.09 787.318 1108.82 791.51 1113.33 791.696C1117.84 791.882 1123.39 790.874 1126.36 787.265C1127.07 786.432 1127.6 785.461 1127.92 784.413C1128.24 783.364 1128.34 782.261 1128.21 781.173C1128.08 780.085 1127.73 779.034 1127.18 778.087C1126.63 777.141 1125.89 776.318 1125 775.671C1119.49 772.01 1108.4 776.414 1103.78 780.102C1103.54 780.314 1101.13 782.755 1099.53 784.347L1101.76 780.818C1104.55 776.653 1107.33 773.018 1109.72 769.808C1111.15 767.977 1112.51 766.385 1113.75 764.873C1116.09 764.873 1125.45 764.555 1129.54 762.645C1133.63 760.734 1138.11 757.338 1139.09 752.695C1139.41 751.596 1139.48 750.441 1139.31 749.31C1139.14 748.179 1138.72 747.098 1138.1 746.141C1137.47 745.185 1136.64 744.374 1135.68 743.765C1134.71 743.157 1133.62 742.764 1132.49 742.613V742.613ZM1059.6 919.417C1055.62 928.57 1051.96 936.052 1049.34 941.226L1047.9 944.065H1047.45C1047.32 943.056 1047.19 941.942 1047 940.695C1046.21 934.858 1044.96 926.554 1043 916.817C1042.36 913.686 1041.64 910.343 1040.87 906.947C1043.97 905.695 1047 904.278 1049.95 902.702C1053.95 906.142 1058.41 909 1063.21 911.192C1061.94 913.978 1060.77 916.791 1059.6 919.417V919.417Z" fill="#05152B"/>
<path d="M1097.81 784.718C1097.81 784.718 1099.91 776.998 1099.99 776.494C1100.81 770.63 1098.92 758.85 1092.98 755.959C1091.98 755.535 1090.9 755.323 1089.81 755.333C1088.72 755.344 1087.65 755.578 1086.65 756.02C1085.66 756.463 1084.76 757.105 1084.03 757.907C1083.29 758.708 1082.73 759.653 1082.37 760.681C1080.78 765.085 1082.79 770.471 1085.21 774.185C1087.97 778.537 1097.78 784.718 1097.81 784.718Z" fill="#05152B"/>
</g>
<defs>
<filter id="filter0_d" x="0.0253296" y="0.5" width="1349.38" height="1377" filterUnits="userSpaceOnUse" color-interpolation-filters="sRGB">
<feFlood flood-opacity="0" result="BackgroundImageFix"/>
<feColorMatrix in="SourceAlpha" type="matrix" values="0 0 0 0 0 0 0 0 0 0 0 0 0 0 0 0 0 0 127 0" result="hardAlpha"/>
<feOffset dy="4"/>
<feGaussianBlur stdDeviation="100"/>
<feComposite in2="hardAlpha" operator="out"/>
<feColorMatrix type="matrix" values="0 0 0 0 0.129412 0 0 0 0 0.901961 0 0 0 0 0.756863 0 0 0 1 0"/>
<feBlend mode="normal" in2="BackgroundImageFix" result="effect1_dropShadow"/>
<feBlend mode="normal" in="SourceGraphic" in2="effect1_dropShadow" result="shape"/>
</filter>
</defs>
</svg>
