<svg width="841" height="869" viewBox="0 0 841 869" fill="none" xmlns="http://www.w3.org/2000/svg">
<g filter="url(#filter0_d)">
<path d="M145.448 343.702H136.577C127.057 343.702 117.927 347.484 111.195 354.215C104.464 360.947 100.682 370.077 100.682 379.597V576.567C100.682 586.086 104.464 595.216 111.195 601.948C117.927 608.679 127.057 612.461 136.577 612.461H258.288C267.807 612.461 276.937 608.679 283.669 601.948C290.4 595.216 294.182 586.086 294.182 576.567" stroke="#05152B" stroke-width="1.10311" stroke-linecap="round" stroke-linejoin="round" stroke-dasharray="4.41 4.41"/>
<path d="M284.263 157.846V118.94C284.263 113.118 286.573 107.534 290.684 103.413C294.796 99.2925 300.375 96.9708 306.196 96.9578H464.473C470.303 96.9578 475.894 99.2737 480.016 103.396C484.139 107.519 486.455 113.11 486.455 118.94" stroke="#05152B" stroke-width="1.10311" stroke-linecap="round" stroke-linejoin="round" stroke-dasharray="4.41 4.41"/>
<path d="M426.663 764.322C599.791 764.322 740.139 744.712 740.139 720.522C740.139 696.331 599.791 676.721 426.663 676.721C253.535 676.721 113.187 696.331 113.187 720.522C113.187 744.712 253.535 764.322 426.663 764.322Z" fill="#21E6C1"/>
<path opacity="0.5" d="M426.663 764.322C599.791 764.322 740.139 744.712 740.139 720.522C740.139 696.331 599.791 676.721 426.663 676.721C253.535 676.721 113.187 696.331 113.187 720.522C113.187 744.712 253.535 764.322 426.663 764.322Z" fill="white"/>
<path d="M722.167 210.043V504.761C722.167 514.396 718.341 523.635 711.53 530.449C704.719 537.263 695.481 541.094 685.847 541.098H167.479C157.845 541.094 148.607 537.263 141.796 530.449C134.985 523.635 131.159 514.396 131.159 504.761V210.043C131.159 209.175 131.159 208.406 131.274 207.49C131.912 198.322 136.003 189.737 142.722 183.467C149.442 177.197 158.289 173.709 167.479 173.706H685.847C695.048 173.71 703.904 177.207 710.625 183.491C717.346 189.774 721.43 198.375 722.053 207.555C722.134 208.341 722.167 209.192 722.167 210.043Z" fill="white" stroke="#05152B" stroke-width="1.10311" stroke-linecap="round" stroke-linejoin="round"/>
<path d="M148.836 221.107H706.34V493.353C706.34 502.382 702.753 511.042 696.368 517.426C689.983 523.811 681.324 527.398 672.295 527.398H182.898C173.868 527.398 165.209 523.811 158.824 517.426C152.439 511.042 148.853 502.382 148.853 493.353V221.107H148.836Z" fill="#05152B"/>
<path opacity="0.2" d="M706.356 221.107V493.353C706.404 502.332 702.884 510.962 696.57 517.346C690.257 523.73 681.666 527.346 672.687 527.398H182.505C173.526 527.346 164.935 523.73 158.622 517.346C152.308 510.962 148.788 502.332 148.836 493.353V221.107H706.356Z" fill="white"/>
<path d="M722.052 207.555H131.273C131.911 198.387 136.002 189.802 142.722 183.532C149.441 177.262 158.288 173.774 167.478 173.771H685.846C695.037 173.774 703.884 177.262 710.603 183.532C717.323 189.802 721.414 198.387 722.052 207.555Z" fill="#21E6C1" stroke="#05152B" stroke-width="1.10311" stroke-miterlimit="10"/>
<path d="M203.865 190.598C203.865 191.87 203.487 193.114 202.781 194.172C202.074 195.23 201.069 196.054 199.894 196.541C198.718 197.028 197.425 197.155 196.177 196.907C194.929 196.659 193.783 196.046 192.884 195.146C191.984 194.247 191.371 193.101 191.123 191.853C190.875 190.605 191.002 189.312 191.489 188.136C191.976 186.961 192.801 185.956 193.858 185.249C194.916 184.543 196.16 184.165 197.432 184.165C199.138 184.165 200.774 184.843 201.981 186.049C203.187 187.256 203.865 188.892 203.865 190.598Z" fill="#05152B"/>
<path d="M231.068 190.598C231.068 191.87 230.691 193.114 229.984 194.172C229.277 195.23 228.272 196.054 227.097 196.541C225.922 197.028 224.628 197.155 223.38 196.907C222.133 196.659 220.987 196.046 220.087 195.146C219.187 194.247 218.575 193.101 218.326 191.853C218.078 190.605 218.206 189.312 218.693 188.136C219.179 186.961 220.004 185.956 221.062 185.249C222.12 184.543 223.363 184.165 224.635 184.165C226.341 184.165 227.978 184.843 229.184 186.049C230.39 187.256 231.068 188.892 231.068 190.598Z" fill="#05152B"/>
<path d="M251.839 197.03C255.391 197.03 258.271 194.151 258.271 190.598C258.271 187.045 255.391 184.165 251.839 184.165C248.286 184.165 245.406 187.045 245.406 190.598C245.406 194.151 248.286 197.03 251.839 197.03Z" fill="#05152B"/>
<path d="M706.34 221.107V493.353C706.34 502.382 702.753 511.042 696.368 517.426C689.983 523.811 681.324 527.398 672.295 527.398H182.898C175.017 527.396 167.381 524.661 161.292 519.659C155.203 514.656 151.038 507.696 149.507 499.965V499.867C149.091 497.71 148.883 495.517 148.885 493.32V221.107H706.34Z" stroke="#05152B" stroke-width="1.10311" stroke-miterlimit="10"/>
<path d="M705.816 263.205C703.429 261.865 700.89 260.816 698.254 260.079L695.193 246.412H682.197L679.169 260.079C676.518 260.802 673.967 261.853 671.574 263.205L659.839 255.693L650.656 264.842L658.038 276.578C656.687 278.971 655.637 281.522 654.912 284.173L641.245 287.201V300.197L654.912 303.257C655.629 305.921 656.679 308.484 658.038 310.885L650.525 322.702L659.724 331.885L671.525 324.372C673.913 325.727 676.458 326.783 679.104 327.514L682.148 341.165H695.095L698.139 327.514C700.777 326.775 703.316 325.72 705.701 324.372L706.307 324.765V262.878L705.816 263.205ZM688.728 310.672C685.406 310.672 682.158 309.687 679.396 307.841C676.634 305.995 674.482 303.371 673.211 300.301C671.941 297.232 671.609 293.854 672.258 290.596C672.908 287.338 674.509 284.346 676.859 281.998C679.209 279.65 682.203 278.052 685.462 277.406C688.72 276.76 692.097 277.095 695.166 278.368C698.234 279.642 700.856 281.797 702.699 284.561C704.542 287.325 705.524 290.573 705.521 293.895C705.521 296.1 705.087 298.283 704.243 300.319C703.398 302.356 702.161 304.206 700.602 305.764C699.042 307.322 697.191 308.558 695.153 309.4C693.116 310.242 690.932 310.674 688.728 310.672Z" fill="#05152B"/>
<path d="M471.593 276.381V248.982L442.785 242.582C441.231 237.016 439.034 231.649 436.238 226.591L439.725 221.107H303.708L307.064 226.443C304.234 231.479 302.035 236.845 300.517 242.418L271.693 248.834V276.3L300.517 282.732C302.035 288.347 304.234 293.756 307.064 298.838L291.236 323.733L310.632 343.113L335.511 327.269C340.558 330.108 345.927 332.334 351.502 333.898L357.918 362.623H385.253L391.702 333.832C397.259 332.261 402.61 330.035 407.644 327.203L432.539 343.047L451.919 323.668L436.189 298.773C438.977 293.722 441.174 288.367 442.736 282.814L471.593 276.381ZM371.749 298.085C364.747 298.085 357.902 296.009 352.08 292.119C346.258 288.228 341.72 282.699 339.041 276.23C336.361 269.761 335.66 262.642 337.026 255.775C338.392 248.907 341.764 242.599 346.715 237.648C351.666 232.696 357.975 229.324 364.842 227.958C371.71 226.592 378.828 227.293 385.298 229.973C391.767 232.653 397.296 237.19 401.186 243.012C405.076 248.835 407.153 255.679 407.153 262.682C407.155 267.331 406.241 271.936 404.462 276.233C402.684 280.529 400.076 284.433 396.788 287.72C393.5 291.008 389.596 293.616 385.3 295.395C381.004 297.173 376.399 298.087 371.749 298.085Z" fill="#05152B"/>
<path d="M289.796 464.529L290.958 442.776L268.419 436.426C267.373 431.955 265.825 427.618 263.804 423.495L277.422 404.378L262.821 388.19L242.427 399.647C238.529 397.195 234.36 395.201 230.004 393.706L226.109 370.595L204.372 369.596L198.087 392.2C193.609 393.204 189.267 394.743 185.156 396.783L166.055 383.181L149.835 397.765L161.39 418.176C158.913 422.057 156.913 426.222 155.432 430.582L148.885 431.663V461.125L153.665 462.467C154.656 466.952 156.19 471.299 158.231 475.414L148.836 488.59L149.458 499.867V499.966L159.164 510.719L179.591 499.18C183.483 501.683 187.666 503.7 192.047 505.187L195.877 527.382L196.057 528.315L217.794 529.46L218.367 527.382L224.079 506.873C228.577 505.866 232.94 504.327 237.075 502.29L256.143 515.875L272.348 501.308L260.89 480.881C263.344 477.004 265.318 472.844 266.766 468.49L289.796 464.529ZM232.066 430.566C228.343 426.425 223.475 423.481 218.078 422.106C212.681 420.732 206.998 420.989 201.747 422.845C196.497 424.702 191.914 428.073 188.58 432.534C185.246 436.995 183.31 442.345 183.017 447.906C182.724 453.467 184.087 458.991 186.933 463.778C189.78 468.564 193.982 472.399 199.009 474.797C204.035 477.195 209.66 478.049 215.171 477.249C220.683 476.45 225.833 474.034 229.971 470.307C235.497 465.315 238.819 458.338 239.212 450.902C239.604 443.466 237.035 436.178 232.066 430.632V430.566Z" fill="#05152B"/>
<path d="M463.654 432.105C464.495 428.736 464.94 425.281 464.98 421.809L480.611 413.626L476.29 397.765L458.646 398.584C456.859 395.619 454.733 392.873 452.311 390.4L457.533 373.525L443.293 365.341L431.377 378.337C428.015 377.525 424.573 377.086 421.114 377.027L412.931 361.396L397.086 365.701L397.921 383.362C394.957 385.148 392.21 387.274 389.737 389.696L372.846 384.475L364.662 398.698L377.756 410.598C376.909 413.953 376.475 417.399 376.463 420.86L360.799 429.044L365.12 444.888L382.797 444.053C384.549 447.033 386.666 449.782 389.099 452.237L383.845 469.031L398.101 477.214L409.952 464.317C413.318 465.164 416.775 465.598 420.247 465.61L428.431 481.257L444.275 476.953L443.571 461.861L443.456 459.275C446.463 457.506 449.244 455.379 451.739 452.941L468.614 458.179L475.586 446.001L476.765 443.939L463.654 432.105ZM426.221 441.729C422.158 442.85 417.854 442.738 413.854 441.409C409.854 440.08 406.339 437.593 403.755 434.263C401.171 430.934 399.634 426.912 399.338 422.707C399.043 418.503 400.003 414.305 402.097 410.647C404.19 406.989 407.323 404.035 411.098 402.16C414.873 400.285 419.119 399.573 423.299 400.115C427.479 400.657 431.404 402.428 434.576 405.203C437.748 407.978 440.024 411.633 441.116 415.704C442.571 421.13 441.822 426.911 439.032 431.786C436.241 436.662 431.636 440.236 426.221 441.729Z" fill="#05152B"/>
<path d="M644.879 459.995L648.479 438.226L626.448 429.371C625.948 424.732 624.888 420.17 623.289 415.786L639.15 398.125L626.317 380.121L604.45 389.401C600.82 386.491 596.852 384.029 592.632 382.068L591.356 358.351L569.587 354.75L560.666 376.683C556.047 377.226 551.505 378.297 547.13 379.875L529.42 364.015L511.497 376.847L520.794 398.698C518.235 401.892 516.014 405.342 514.165 408.993C513.92 409.501 513.658 410.008 513.429 410.516L489.728 411.825L486.111 433.561L489.679 435.002L508.142 442.449C508.646 447.067 509.707 451.606 511.301 455.969L495.408 473.744L508.257 491.749L530.108 482.419C533.726 485.355 537.689 487.84 541.909 489.818L543.136 513.42L564.889 517.021L573.793 495.252C578.423 494.746 582.973 493.68 587.346 492.076L605.023 507.937L623.027 495.088L613.731 473.221C616.692 469.587 619.194 465.601 621.178 461.354L644.879 459.995ZM583.827 459.013C579.247 462.299 573.796 464.153 568.162 464.341C562.529 464.528 556.967 463.041 552.179 460.067C547.391 457.093 543.592 452.765 541.264 447.632C538.935 442.499 538.181 436.791 539.097 431.23C540.013 425.668 542.557 420.503 546.409 416.388C550.26 412.272 555.246 409.392 560.735 408.11C566.223 406.828 571.969 407.203 577.245 409.187C582.521 411.171 587.09 414.675 590.374 419.256C594.773 425.401 596.551 433.041 595.317 440.497C594.083 447.953 589.938 454.614 583.794 459.013H583.827Z" fill="#05152B"/>
<path d="M349.865 298.838H178.691C166.84 298.838 157.233 308.445 157.233 320.296V557.286C157.233 569.137 166.84 578.744 178.691 578.744H349.865C361.716 578.744 371.324 569.137 371.324 557.286V320.296C371.324 308.445 361.716 298.838 349.865 298.838Z" fill="#21E6C1" stroke="#05152B" stroke-width="1.10311" stroke-miterlimit="10"/>
<path opacity="0.2" d="M349.865 298.838H178.691C166.84 298.838 157.233 308.445 157.233 320.296V557.286C157.233 569.137 166.84 578.744 178.691 578.744H349.865C361.716 578.744 371.324 569.137 371.324 557.286V320.296C371.324 308.445 361.716 298.838 349.865 298.838Z" fill="black"/>
<path d="M391.243 341.444V578.433C391.245 581.252 390.692 584.044 389.614 586.649C388.537 589.255 386.957 591.622 384.964 593.617C382.971 595.611 380.605 597.193 378 598.272C375.396 599.352 372.604 599.907 369.785 599.907H198.611C195.793 599.905 193.003 599.348 190.4 598.268C187.798 597.187 185.433 595.605 183.442 593.611C181.451 591.617 179.872 589.25 178.796 586.646C177.72 584.041 177.167 581.251 177.169 578.433V341.444C177.169 335.755 179.427 330.3 183.448 326.276C187.469 322.252 192.922 319.99 198.611 319.985H369.785C375.476 319.985 380.934 322.246 384.958 326.27C388.982 330.294 391.243 335.752 391.243 341.444Z" fill="white" stroke="#05152B" stroke-width="1.10311" stroke-linecap="round" stroke-linejoin="round"/>
<path d="M391.243 341.444V354.129H177.169V341.444C177.169 335.755 179.427 330.3 183.448 326.276C187.469 322.252 192.922 319.99 198.611 319.985H369.785C375.476 319.985 380.934 322.246 384.958 326.27C388.982 330.294 391.243 335.752 391.243 341.444Z" fill="#21E6C1" stroke="#05152B" stroke-width="1.10311" stroke-miterlimit="10"/>
<path d="M249.973 368.827H197.301V377.665H249.973V368.827Z" fill="#21E6C1"/>
<path d="M249.973 448.03H197.301V456.869H249.973V448.03Z" fill="#21E6C1"/>
<path d="M249.973 519.853H197.301V528.691H249.973V519.853Z" fill="#21E6C1"/>
<path d="M346.886 390.711H197.301V397.192H346.886V390.711Z" fill="#05152B"/>
<path d="M319.912 403.101H197.301V409.419H319.912V403.101Z" fill="#05152B"/>
<path d="M335.969 415.295H197.301V421.613H335.969V415.295Z" fill="#05152B"/>
<path d="M335.969 427.472H197.301V433.79H335.969V427.472Z" fill="#05152B"/>
<path d="M346.886 462.532H197.301V469.014H346.886V462.532Z" fill="#05152B"/>
<path d="M319.912 474.923H197.301V481.241H319.912V474.923Z" fill="#05152B"/>
<path d="M335.969 487.117H197.301V493.435H335.969V487.117Z" fill="#05152B"/>
<path d="M346.886 541.392H197.301V547.874H346.886V541.392Z" fill="#05152B"/>
<path d="M319.912 553.799H197.301V560.117H319.912V553.799Z" fill="#05152B"/>
<path d="M335.969 565.993H197.301V572.311H335.969V565.993Z" fill="#05152B"/>
<path d="M632.521 155.653V251.437C632.521 254.798 631.859 258.126 630.572 261.231C629.285 264.336 627.399 267.157 625.022 269.533C622.645 271.908 619.822 273.792 616.717 275.077C613.611 276.362 610.283 277.022 606.922 277.02H386.316C382.956 277.022 379.627 276.362 376.521 275.077C373.416 273.792 370.593 271.908 368.216 269.533C365.839 267.157 363.953 264.336 362.666 261.231C361.38 258.126 360.717 254.798 360.717 251.437V155.653C360.722 148.865 363.42 142.356 368.22 137.556C373.02 132.756 379.528 130.058 386.316 130.053H606.922C613.711 130.053 620.222 132.751 625.023 137.551C629.824 142.352 632.521 148.863 632.521 155.653Z" fill="white" stroke="#222221" stroke-width="1.10311" stroke-miterlimit="10"/>
<path d="M632.521 155.653V157.846H360.717V155.653C360.722 148.865 363.42 142.356 368.22 137.556C373.02 132.756 379.528 130.058 386.316 130.053H606.922C613.711 130.053 620.222 132.751 625.023 137.551C629.824 142.352 632.521 148.863 632.521 155.653Z" fill="#21E6C1" stroke="#05152B" stroke-width="1.10311" stroke-miterlimit="10"/>
<path d="M400.655 148.533C400.106 149.083 399.406 149.458 398.643 149.61C397.881 149.763 397.091 149.685 396.373 149.388C395.654 149.091 395.04 148.588 394.608 147.942C394.176 147.296 393.945 146.536 393.945 145.758C393.945 144.981 394.176 144.221 394.608 143.575C395.04 142.929 395.654 142.425 396.373 142.128C397.091 141.831 397.881 141.754 398.643 141.906C399.406 142.059 400.106 142.434 400.655 142.984C401.385 143.722 401.795 144.719 401.795 145.758C401.795 146.797 401.385 147.794 400.655 148.533Z" fill="#05152B"/>
<path d="M418.856 148.533C418.307 149.083 417.607 149.458 416.844 149.61C416.082 149.763 415.292 149.685 414.574 149.388C413.855 149.091 413.241 148.588 412.809 147.942C412.377 147.296 412.146 146.536 412.146 145.758C412.146 144.981 412.377 144.221 412.809 143.575C413.241 142.929 413.855 142.425 414.574 142.128C415.292 141.831 416.082 141.754 416.844 141.906C417.607 142.059 418.307 142.434 418.856 142.984C419.586 143.722 419.996 144.719 419.996 145.758C419.996 146.797 419.586 147.794 418.856 148.533Z" fill="#05152B"/>
<path d="M437.057 148.533C436.508 149.083 435.808 149.458 435.045 149.61C434.283 149.763 433.493 149.685 432.774 149.388C432.056 149.091 431.442 148.588 431.01 147.942C430.578 147.296 430.347 146.536 430.347 145.758C430.347 144.981 430.578 144.221 431.01 143.575C431.442 142.929 432.056 142.425 432.774 142.128C433.493 141.831 434.283 141.754 435.045 141.906C435.808 142.059 436.508 142.434 437.057 142.984C437.787 143.722 438.197 144.719 438.197 145.758C438.197 146.797 437.787 147.794 437.057 148.533Z" fill="#05152B"/>
<path d="M466.895 175.458H378.051V252.255H466.895V175.458Z" stroke="#05152B" stroke-width="1.10311" stroke-linecap="round" stroke-linejoin="round" stroke-dasharray="4.41 4.41"/>
<path d="M582.861 175.458H480.611V180.859H582.861V175.458Z" fill="#05152B"/>
<path d="M559.046 186.637H480.611V192.022H559.046V186.637Z" fill="#05152B"/>
<path d="M597.396 197.767H480.611V203.217H597.396V197.767Z" fill="#05152B"/>
<path d="M580.062 208.619H480.611V214.069H580.062V208.619Z" fill="#05152B"/>
<path d="M639.952 393.378H589.948C584.045 393.378 579.26 398.164 579.26 404.067V433.414C579.26 439.317 584.045 444.102 589.948 444.102H639.952C645.855 444.102 650.64 439.317 650.64 433.414V404.067C650.64 398.164 645.855 393.378 639.952 393.378Z" fill="white" stroke="#05152B" stroke-width="1.10311" stroke-linecap="round" stroke-linejoin="round"/>
<path d="M602.29 408.633L588.557 417.243L601.308 428.537" stroke="#05152B" stroke-width="1.10311" stroke-linecap="round" stroke-linejoin="round"/>
<path d="M627.3 429.355L639.641 418.847L625.401 409.517" stroke="#05152B" stroke-width="1.10311" stroke-linecap="round" stroke-linejoin="round"/>
<path d="M608.968 435.836L619.099 404.05" stroke="#05152B" stroke-width="1.10311" stroke-linecap="round" stroke-linejoin="round"/>
<path d="M503.363 712.452C503.363 712.452 455.896 726.054 449.267 728.411C443.244 730.539 426.909 736.267 414.649 734.483C413.466 734.313 412.295 734.062 411.146 733.73C398.723 730.031 393.142 726.578 391.505 718.77C389.868 710.963 396.055 705.201 402.013 701.519C407.971 697.836 440.281 693.989 440.281 693.989L448.089 696.281L503.363 712.452Z" fill="#21E6C1"/>
<path d="M414.649 734.483C413.466 734.313 412.295 734.062 411.146 733.73C398.723 730.031 393.142 726.578 391.505 718.77C389.868 710.963 396.055 705.201 402.013 701.519C407.971 697.836 440.281 693.989 440.281 693.989L448.089 696.281C441.018 699.554 414.698 701.339 408.953 704.645C403.208 707.951 400.442 714.171 403.83 722.649C405.647 727.069 410.492 731.406 414.649 734.483Z" fill="white"/>
<path d="M496.226 714.384C496.226 714.384 460.577 723.615 446.435 729.524C432.294 735.433 405.336 738.019 395.695 725.841C386.055 713.664 394.582 703.155 404.19 700.815C413.798 698.474 433.227 694.791 443.833 696.281" stroke="#05152B" stroke-width="1.10311" stroke-linecap="round" stroke-linejoin="round"/>
<path d="M415.353 733.845C415.353 733.845 397.217 723.893 403.241 709.948C407.693 699.669 431.884 701.895 443.866 696.281" stroke="#05152B" stroke-width="1.10311" stroke-linecap="round" stroke-linejoin="round"/>
<path d="M647.939 736.693C647.448 741.603 645.73 746.203 640.819 749.1C637.546 751.031 632.897 752.177 626.236 752.111C609.59 751.899 578.294 739.999 578.294 739.999L548.996 723.795L564.234 699.685L568.408 693.138L579.178 695.561C579.178 695.561 588.099 700.618 597.068 704.645C606.038 708.671 627.823 709.555 635.5 715.726C643.176 721.896 648.774 728.607 647.939 736.693Z" fill="#21E6C1"/>
<path d="M647.939 736.693C647.448 741.603 645.73 746.203 640.819 749.1C642.234 744.273 641.945 739.106 640.001 734.467C636.727 727.118 626.072 720.636 612.061 719.556C598.05 718.476 587.329 711.928 581.715 708.999C577.329 706.724 568.081 701.748 564.234 699.685L568.408 693.138L579.178 695.561C579.178 695.561 588.099 700.618 597.068 704.645C606.038 708.671 627.823 709.555 635.5 715.726C643.176 721.896 648.774 728.607 647.939 736.693Z" fill="white"/>
<path d="M555.494 728.345C576.584 740.605 599.892 748.565 624.075 751.768C629.411 752.406 635.614 752.504 639.183 748.494C640.132 747.336 640.839 745.999 641.26 744.562C641.682 743.125 641.81 741.618 641.638 740.13C640.999 732.601 634.665 726.643 627.725 723.648C620.785 720.653 613.141 719.965 605.76 718.312C598.418 716.657 591.321 714.06 584.645 710.586C579.342 707.82 574.219 704.465 568.375 703.221C562.532 701.977 555.576 703.483 552.45 708.59" stroke="#05152B" stroke-width="1.10311" stroke-linecap="round" stroke-linejoin="round"/>
<path d="M637.218 750.54C639.961 749.227 642.358 747.291 644.22 744.887C646.081 742.483 647.355 739.677 647.939 736.693C649.003 729.606 644.96 722.469 639.281 718.116C633.601 713.762 626.481 711.699 619.459 710.243C612.438 708.786 605.252 707.804 598.525 705.136C588.262 701.109 578.131 693.187 567.426 696.019" stroke="#05152B" stroke-width="1.10311" stroke-linecap="round" stroke-linejoin="round"/>
<path d="M588.557 474.776L538.979 455.92L538.357 455.674C538.357 455.674 538.537 454.365 538.684 452.401C538.995 448.44 539.159 441.991 537.293 439.814C534.527 436.54 526.703 439.29 519.059 435.787C511.416 432.285 497.29 438.554 497.29 438.554C497.29 438.554 487.077 436.671 482.559 444.037C480.268 449.978 481.053 458.768 481.053 458.768L480.12 459.095C474.212 461.305 442.065 473.401 435.273 478.262C427.76 483.581 419.445 538.201 416.777 554.241C414.109 570.282 409.362 584.734 411.768 590.25C414.174 595.766 448.71 622.364 468.581 629.222C488.451 636.08 558.915 634.132 558.915 634.132C558.915 634.132 560.061 633.821 562.107 633.167C574.022 629.337 616.3 613.525 638.741 576.403C638.773 576.469 617.037 505.22 588.557 474.776ZM454.603 566.648C450.953 569.234 452.966 579.251 452.966 579.251L446.763 573.784L462.345 535.467L468.99 564.929C468.99 564.929 458.253 564.078 454.603 566.648ZM579.26 590.987C577.541 591.871 584.17 573.457 581.028 569.283C577.885 565.109 568.408 565.502 568.408 565.502L569.21 560.477L574.824 531.67L576.69 529.46C576.69 529.46 595.972 562.507 599.425 574.161C599.425 574.193 578.409 590.987 579.26 590.987Z" fill="#21E6C1"/>
<path d="M494.95 355.274L469.35 382.445C469.35 382.445 465.831 385.571 467.223 393.444C468.614 401.317 471.887 408.175 474.359 408.633C476.315 408.976 478.298 409.151 480.284 409.157C480.284 409.157 485.767 421.04 489.663 425.705C489.663 425.705 491.005 444.053 490.285 449.144C490.285 449.144 499.483 457.18 508.142 458.195C516.801 459.21 530.173 445.952 530.173 445.952L533.447 429.715C533.447 429.715 541.303 417.799 541.827 414.624C542.351 411.449 545.952 412.267 547.719 410.696C549.487 409.124 553.563 402.135 554.266 395.523C554.97 388.91 554.987 381.316 547.31 383.542C540.648 381.758 544.822 367.681 544.822 367.681L533.119 357.369L494.95 355.274Z" fill="white"/>
<path opacity="0.5" d="M538.979 455.92C538.593 456.931 538.15 457.92 537.653 458.882C533.43 466.837 515.033 482.01 515.033 482.01L509.468 464.906L506.423 482.01C500.285 479.326 481.561 463.105 481.561 463.105C481.561 463.105 480.922 461.583 480.153 459.21L481.086 458.882C481.086 458.882 480.3 450.027 482.592 444.151C487.077 436.786 497.323 438.668 497.323 438.668C497.323 438.668 511.448 432.399 519.092 435.902C526.736 439.405 534.56 436.688 537.326 439.929C540.092 443.169 538.39 455.74 538.39 455.74L538.979 455.92Z" fill="white"/>
<path opacity="0.2" d="M588.557 474.775L538.979 455.92L538.357 455.674C538.357 455.674 538.537 454.365 538.684 452.401L537.653 458.833L530.32 468.785C538.159 471.671 545.812 475.038 553.235 478.867C556.789 480.771 559.689 483.699 561.557 487.272C563.425 490.845 564.175 494.897 563.711 498.902L554.577 577.058L550.829 621.431L562.139 633.167C574.055 629.336 616.333 613.525 638.773 576.403C638.773 576.469 617.037 505.22 588.557 474.775ZM579.26 590.987C577.541 591.871 584.17 573.457 581.028 569.283C577.885 565.109 568.408 565.502 568.408 565.502L569.21 560.477L574.824 531.67L576.69 529.46C576.69 529.46 595.972 562.507 599.425 574.161C599.425 574.193 578.409 590.987 579.26 590.987Z" fill="black"/>
<path opacity="0.2" d="M472.28 569.283L464.571 543.52C464.571 543.52 450.74 496.365 441.263 484.743L443.751 517.905C443.751 517.905 435.567 557.515 428.087 569.283C420.607 581.051 418.938 584.014 428.087 584.014C437.237 584.014 459.513 601.757 459.513 601.757L457.795 587.026L472.28 569.283ZM452.852 579.251L446.648 573.784L462.23 535.467L468.876 564.929C468.876 564.929 458.204 564.127 454.554 566.697C450.904 569.267 452.852 579.251 452.852 579.251Z" fill="black"/>
<path d="M489.663 425.705C489.663 425.705 491.07 439.601 489.663 445.952" stroke="#05152B" stroke-width="1.10311" stroke-linecap="round" stroke-linejoin="round"/>
<path d="M531.597 444.086C531.612 439.618 532.128 435.165 533.136 430.812" stroke="#05152B" stroke-width="1.10311" stroke-linecap="round" stroke-linejoin="round"/>
<path d="M535.313 365.635C535.313 365.635 543.726 376.192 543.284 384.18C542.842 392.167 542.22 401.628 542.433 410.892C542.645 420.156 527.554 439.568 519.796 441.287C512.038 443.005 505.359 443.447 500.4 438.488C495.441 433.528 490.481 426.638 484.032 417.799C477.583 408.96 479.122 389.565 479.122 389.565" stroke="#05152B" stroke-width="1.10311" stroke-linecap="round" stroke-linejoin="round"/>
<path d="M515.049 396.947C514.537 399.847 514.317 402.792 514.395 405.736C514.226 408.218 514.997 410.672 516.555 412.61C517.488 413.56 518.83 414.329 519.01 415.639C519.006 416.228 518.842 416.805 518.537 417.309C518.231 417.814 517.795 418.226 517.275 418.503C516.225 419.032 515.214 419.634 514.247 420.303" stroke="#05152B" stroke-width="1.10311" stroke-linecap="round" stroke-linejoin="round"/>
<path d="M501.742 421.318C501.742 421.318 502.708 427.587 511.105 428.897" stroke="#05152B" stroke-width="1.10311" stroke-linecap="round" stroke-linejoin="round"/>
<path d="M502.61 401.726C502.61 403.543 501.824 405 500.858 405C499.893 405 499.107 403.543 499.107 401.726C499.107 399.909 499.893 398.453 500.858 398.453C501.824 398.453 502.61 399.926 502.61 401.726Z" fill="#05152B"/>
<path d="M527.669 402.512C527.669 404.329 526.883 405.785 525.917 405.785C524.952 405.785 524.166 404.312 524.166 402.512C524.166 400.711 524.952 399.238 525.917 399.238C526.883 399.238 527.669 400.695 527.669 402.512Z" fill="#05152B"/>
<path d="M522.611 394.573C522.611 394.573 530.795 386.389 537.653 395.523" stroke="#05152B" stroke-width="2.20621" stroke-linecap="round" stroke-linejoin="round"/>
<path d="M505.376 394.737C505.376 394.737 500.204 388.943 492.052 394.737" stroke="#05152B" stroke-width="2.20621" stroke-linecap="round" stroke-linejoin="round"/>
<path d="M490.285 433.431C490.285 433.431 495.277 447.18 506.423 451.091C517.57 455.003 532.366 434.724 532.366 434.724L531.597 432.088C531.597 432.088 521.891 444.692 511.105 442.547C500.318 440.403 489.663 425.771 489.663 425.771L490.285 433.431Z" fill="#05152B"/>
<path d="M480.284 408.633C480.284 408.633 473.639 410.974 471.871 405.802C470.103 400.629 464.047 386.995 469.35 382.445C474.653 377.895 478.909 388.452 478.909 388.452" stroke="#05152B" stroke-width="1.10311" stroke-linecap="round" stroke-linejoin="round"/>
<path d="M542.416 411.448C542.416 411.448 548.587 412.692 550.355 407.52C552.122 402.348 558.178 388.713 552.875 384.163C547.572 379.613 543.316 390.17 543.316 390.17" stroke="#05152B" stroke-width="1.10311" stroke-linecap="round" stroke-linejoin="round"/>
<path d="M478.909 401.726C481.218 401.362 483.301 400.133 484.736 398.289C485.613 396.67 486.168 394.897 486.373 393.067C486.98 389.587 487.287 386.06 487.289 382.527C487.217 381.146 487.344 379.763 487.666 378.418C488.157 377.065 488.914 375.825 489.892 374.768C492.2 372.051 494.999 369.76 497.208 366.944C498.393 365.616 499.294 364.06 499.857 362.371C500.42 360.683 500.632 358.897 500.482 357.124C505.546 361.299 511.463 364.314 517.817 365.957C524.171 367.6 530.807 367.831 537.26 366.633C548.963 364.342 560.175 354.079 558.817 341.182C558.56 339.019 557.633 336.991 556.165 335.383C554.697 333.774 552.763 332.665 550.633 332.212C544.855 330.772 539.666 333.849 534.429 335.829C524.886 339.43 515.54 333.243 505.9 332.212C497.716 331.312 487.519 332.343 483.23 340.543C483.23 340.543 468.499 342.278 461.952 354.456C455.405 366.633 467.795 383.476 467.795 383.476C467.795 383.476 472.706 377.453 479.138 389.63L478.909 401.726Z" fill="#05152B"/>
<path d="M536.327 362.525C536.327 362.525 532.497 382.494 542.498 392.167C542.498 392.167 544.691 386.16 546.901 384.687C548.494 381.144 549.169 377.255 548.863 373.382C548.557 369.509 547.28 365.775 545.15 362.525C537.751 350.904 536.327 362.525 536.327 362.525Z" fill="#05152B"/>
<path opacity="0.2" d="M554.561 339.807C553.683 342.531 552.194 345.019 550.209 347.082C548.223 349.144 545.793 350.725 543.104 351.706C529.224 357.369 515.753 351.1 501.84 349.873C490.497 348.858 477.976 359.104 477.174 370.758" stroke="white" stroke-width="1.10311" stroke-linecap="round" stroke-linejoin="round"/>
<path opacity="0.2" d="M468.614 367.681C468.784 363.082 470.259 358.627 472.868 354.836C475.477 351.044 479.11 348.074 483.345 346.272" stroke="white" stroke-width="1.10311" stroke-linecap="round" stroke-linejoin="round"/>
<path d="M486.455 444.086C492.559 450.447 499.923 455.464 508.076 458.817C508.076 458.817 524.69 453.988 533.136 442.449" stroke="#05152B" stroke-width="1.10311" stroke-linecap="round" stroke-linejoin="round"/>
<path d="M503.433 415.054C510.811 411.669 514.049 402.944 510.665 395.566C507.28 388.187 498.555 384.949 491.177 388.334C483.798 391.718 480.56 400.443 483.945 407.822C487.329 415.2 496.054 418.438 503.433 415.054Z" stroke="#05152B" stroke-width="1.10311" stroke-linecap="round" stroke-linejoin="round"/>
<path d="M531.914 416.347C539.971 415.358 545.701 408.025 544.712 399.967C543.722 391.91 536.389 386.181 528.332 387.17C520.275 388.159 514.545 395.493 515.534 403.55C516.524 411.607 523.857 417.337 531.914 416.347Z" stroke="#05152B" stroke-width="1.10311" stroke-linecap="round" stroke-linejoin="round"/>
<path d="M489.663 438.603C488.174 438.994 486.779 439.681 485.561 440.623C484.343 441.565 483.328 442.743 482.575 444.086C479.973 448.669 481.544 463.089 481.544 463.089C481.544 463.089 494.982 476.38 506.423 481.994L509.795 463.024L515.033 481.994C515.033 481.994 532.743 469.472 537.653 458.882C537.653 458.882 539.29 446.525 537.653 442.515C537.281 441.401 536.573 440.43 535.626 439.735C534.679 439.04 533.54 438.656 532.366 438.636" stroke="#05152B" stroke-width="1.10311" stroke-linecap="round" stroke-linejoin="round"/>
<path d="M468.614 565.519C468.614 565.519 463.36 530.328 456.371 515.973" stroke="#05152B" stroke-width="1.10311" stroke-linecap="round" stroke-linejoin="round"/>
<path d="M441.263 484.743C445.332 490.527 448.965 496.605 452.131 502.928" stroke="#05152B" stroke-width="1.10311" stroke-linecap="round" stroke-linejoin="round"/>
<path d="M579.26 511.014C580.671 505.13 582.605 499.384 585.038 493.844" stroke="#05152B" stroke-width="1.10311" stroke-linecap="round" stroke-linejoin="round"/>
<path d="M568.408 565.519C568.408 565.519 572.189 541.392 576.707 521.522" stroke="#05152B" stroke-width="1.10311" stroke-linecap="round" stroke-linejoin="round"/>
<path d="M574.824 531.637C578.479 526.792 583.618 523.274 589.457 521.62" stroke="#05152B" stroke-width="1.10311" stroke-linecap="round" stroke-linejoin="round"/>
<path d="M538.373 455.674C538.373 455.674 568.867 467.868 588.557 474.792C588.557 474.792 612.781 497.56 638.757 576.469C638.757 576.469 614.958 616.504 569.685 629.337" stroke="#05152B" stroke-width="1.10311" stroke-linecap="round" stroke-linejoin="round"/>
<path d="M577.541 592.411L599.425 574.194C599.425 574.194 610.997 565.404 623.028 571.411" stroke="#05152B" stroke-width="1.10311" stroke-linecap="round" stroke-linejoin="round"/>
<path d="M576.707 529.46C576.707 529.46 594.793 556.189 599.425 574.193" stroke="#05152B" stroke-width="1.10311" stroke-linecap="round" stroke-linejoin="round"/>
<path d="M453.097 580.266L446.697 574.193C446.697 574.193 437.204 572.557 426.434 579.742" stroke="#05152B" stroke-width="1.10311" stroke-linecap="round" stroke-linejoin="round"/>
<path d="M446.697 574.194C446.697 574.194 454.652 548.005 462.492 534.6" stroke="#05152B" stroke-width="1.10311" stroke-linecap="round" stroke-linejoin="round"/>
<path d="M481.086 458.882C481.086 458.882 437.204 475.348 432.899 480.16C428.595 484.973 412.243 577.041 411.801 587.582C411.425 597.01 445.601 618.174 462.541 627.094" stroke="#05152B" stroke-width="1.10311" stroke-linecap="round" stroke-linejoin="round"/>
<path d="M513.903 489.997C513.903 490.57 513.734 491.131 513.415 491.607C513.097 492.083 512.644 492.455 512.115 492.674C511.586 492.893 511.003 492.951 510.441 492.839C509.879 492.727 509.363 492.451 508.958 492.046C508.553 491.641 508.277 491.125 508.165 490.563C508.053 490.001 508.111 489.418 508.33 488.889C508.549 488.359 508.92 487.907 509.397 487.589C509.873 487.27 510.433 487.1 511.006 487.1C511.387 487.098 511.765 487.172 512.118 487.316C512.47 487.461 512.79 487.675 513.06 487.944C513.329 488.214 513.543 488.534 513.687 488.886C513.832 489.239 513.906 489.616 513.903 489.997Z" fill="#05152B"/>
<path d="M564.676 644.215H464.833C464.212 644.215 463.617 643.968 463.178 643.529C462.739 643.09 462.492 642.495 462.492 641.874C462.492 641.254 462.739 640.658 463.178 640.219C463.617 639.78 464.212 639.534 464.833 639.534H564.676C565.297 639.534 565.892 639.78 566.331 640.219C566.77 640.658 567.017 641.254 567.017 641.874C567.017 642.495 566.77 643.09 566.331 643.529C565.892 643.968 565.297 644.215 564.676 644.215Z" fill="#05152B"/>
<path d="M568.179 636.391L581.552 573.539C581.759 572.564 581.746 571.556 581.513 570.587C581.28 569.618 580.834 568.714 580.206 567.94C579.578 567.166 578.785 566.543 577.885 566.115C576.985 565.688 576.001 565.467 575.004 565.47H458.302C457.314 565.47 456.339 565.689 455.446 566.112C454.553 566.535 453.765 567.15 453.139 567.914C452.512 568.678 452.063 569.572 451.824 570.53C451.585 571.489 451.561 572.488 451.755 573.457L463.753 634.214C464.047 635.706 464.841 637.053 466.005 638.033C467.169 639.012 468.632 639.565 470.152 639.599L561.468 641.694C563.029 641.729 564.553 641.218 565.778 640.25C567.003 639.282 567.852 637.918 568.179 636.391Z" fill="white" stroke="#05152B" stroke-width="1.10311" stroke-linecap="round" stroke-linejoin="round"/>
<path d="M525.59 601.741C525.587 603.582 525.038 605.381 524.013 606.91C522.987 608.44 521.532 609.631 519.83 610.333C518.127 611.036 516.255 611.218 514.45 610.856C512.644 610.495 510.986 609.607 509.686 608.304C508.385 607.001 507.499 605.341 507.141 603.535C506.783 601.729 506.969 599.857 507.674 598.156C508.379 596.456 509.573 595.002 511.104 593.979C512.635 592.957 514.435 592.411 516.277 592.411C517.501 592.411 518.714 592.652 519.845 593.121C520.976 593.59 522.003 594.278 522.868 595.144C523.733 596.011 524.419 597.04 524.886 598.171C525.353 599.303 525.592 600.516 525.59 601.741Z" fill="#05152B"/>
<path d="M543.906 571.477H557.769" stroke="#05152B" stroke-width="1.10311" stroke-linecap="round" stroke-linejoin="round"/>
<path d="M477.698 571.477H530.32" stroke="#05152B" stroke-width="1.10311" stroke-linecap="round" stroke-linejoin="round"/>
<path d="M568.408 703.123L557.769 731.046C557.769 731.046 530.631 724.204 495.883 717.084C459.53 709.637 421.573 699.996 401.882 665.444C399.493 661.237 397.889 656.262 399.018 651.548C401.85 639.616 417.383 636.375 427.612 635.18C434.044 634.484 440.507 634.124 446.976 634.1C450.249 634.1 461.134 632.316 463.769 634.263C467.728 637.152 471.954 639.656 476.389 641.743C482.199 644.215 567.017 639.534 567.017 639.534C568.493 636.316 569.396 632.865 569.685 629.337C583.025 622.56 613.878 616.832 626.972 619.369C647.481 623.346 659.446 635.311 657.171 647.849C654.896 660.386 609.59 694.006 568.408 703.123Z" fill="#05152B"/>
<path d="M568.408 703.122C568.408 703.122 542.596 696.281 521.515 682.041C500.433 667.801 483.967 651.269 454.587 654.69" stroke="white" stroke-width="1.10311" stroke-linecap="round" stroke-linejoin="round"/>
<path d="M516.686 678.685C530.009 674.855 539.781 666.23 550.469 657.964C561.743 648.916 573.849 640.958 586.626 634.198" stroke="white" stroke-width="1.10311" stroke-linecap="round" stroke-linejoin="round"/>
<path d="M511.988 404.05H515.9" stroke="#05152B" stroke-width="1.10311" stroke-linecap="round" stroke-linejoin="round"/>
</g>
<defs>
<filter id="filter0_d" x="0.1306" y="0.406189" width="840.008" height="867.916" filterUnits="userSpaceOnUse" color-interpolation-filters="sRGB">
<feFlood flood-opacity="0" result="BackgroundImageFix"/>
<feColorMatrix in="SourceAlpha" type="matrix" values="0 0 0 0 0 0 0 0 0 0 0 0 0 0 0 0 0 0 127 0" result="hardAlpha"/>
<feOffset dy="4"/>
<feGaussianBlur stdDeviation="50"/>
<feComposite in2="hardAlpha" operator="out"/>
<feColorMatrix type="matrix" values="0 0 0 0 0.129412 0 0 0 0 0.901961 0 0 0 0 0.756863 0 0 0 1 0"/>
<feBlend mode="normal" in2="BackgroundImageFix" result="effect1_dropShadow"/>
<feBlend mode="normal" in="SourceGraphic" in2="effect1_dropShadow" result="shape"/>
</filter>
</defs>
</svg>
