<svg width="1365" height="1374" viewBox="0 0 1365 1374" fill="none" xmlns="http://www.w3.org/2000/svg">
<g filter="url(#filter0_d)">
<path d="M934.116 584.528C934.747 582.55 933.312 578.702 932.79 577.55C930.095 571.55 923.443 568.855 917.139 569.355C914.877 569.789 912.553 569.789 910.291 569.355C907.616 568.225 905.487 566.096 904.357 563.42C901.877 558.656 898.738 554.265 895.031 550.377C889.357 544.465 881.684 540.117 873.293 540.399C850.62 541.182 852.946 559.964 846.685 565.442C843.207 568.485 840.707 564.138 837.751 562.659C835.905 561.657 833.799 561.239 831.71 561.461C829.622 561.682 827.65 562.532 826.056 563.899C822.817 566.616 820.904 570.572 818.36 573.963C815.817 577.354 811.991 580.485 807.774 579.941C804.252 579.572 801.448 576.833 798.078 575.702C796.1 575.149 794.027 575.022 791.996 575.329C789.965 575.637 788.022 576.371 786.296 577.485C783.284 579.385 780.622 581.789 778.427 584.593L934.116 584.528Z" fill="white" stroke="#05152B" stroke-miterlimit="10"/>
<path d="M1155.37 342.973C1156.35 339.951 1154.15 334.06 1153.35 332.278C1149.22 323.083 1139 318.909 1129.33 319.713C1125.8 319.996 1122.2 320.822 1118.83 319.713C1114.61 318.409 1111.76 314.518 1109.7 310.605C1105.9 303.275 1101.08 296.52 1095.39 290.54C1086.7 281.454 1074.91 274.78 1061.96 275.324C1027.18 276.541 1030.74 305.344 1021.13 313.757C1015.79 318.452 1011.94 311.779 1007.4 309.409C1004.57 307.867 1001.34 307.222 998.134 307.56C994.931 307.898 991.906 309.202 989.462 311.3C984.484 315.496 981.549 321.561 977.636 326.756C973.723 331.952 967.876 336.647 961.398 335.93C955.985 335.343 951.681 331.169 946.507 329.408C943.494 328.562 940.336 328.359 937.239 328.812C934.141 329.265 931.174 330.364 928.53 332.039C923.917 334.955 919.831 338.629 916.443 342.908L1155.37 342.973Z" fill="white" stroke="#05152B" stroke-miterlimit="10"/>
<path d="M425.92 241.043C426.551 239.043 425.116 235.217 424.594 234.065C421.899 228.065 415.247 225.369 408.943 225.869C406.681 226.304 404.357 226.304 402.095 225.869C399.42 224.739 397.29 222.61 396.161 219.935C393.681 215.17 390.542 210.779 386.835 206.892C381.161 200.979 373.488 196.631 365.097 196.914C342.424 197.697 344.75 216.478 338.489 221.956C335.011 225 332.511 220.652 329.555 219.174C327.709 218.172 325.603 217.754 323.514 217.975C321.426 218.196 319.454 219.046 317.859 220.413C314.577 223.152 312.664 227.087 310.229 230.478C307.795 233.869 303.86 236.999 299.643 236.456C296.121 236.065 293.317 233.347 289.948 232.217C287.984 231.66 285.925 231.525 283.905 231.821C281.886 232.117 279.952 232.837 278.231 233.934C275.219 235.834 272.557 238.239 270.361 241.043H425.92Z" fill="white" stroke="#05152B" stroke-miterlimit="10"/>
<path d="M1114.87 1049.99C1116.46 1046.72 1117.28 1043.14 1117.28 1039.51C1117.42 1033.4 1115.12 1027.48 1110.9 1023.06C1106.68 1018.64 1100.87 1016.07 1094.76 1015.92C1090.67 1015.93 1086.67 1017.1 1083.22 1019.29C1083.41 1018.18 1083.51 1017.05 1083.52 1015.92C1083.69 1013.41 1083.36 1010.89 1082.53 1008.51C1081.71 1006.13 1080.41 1003.94 1078.73 1002.07C1077.04 1000.2 1074.99 998.69 1072.7 997.63C1070.42 996.57 1067.94 995.98 1065.43 995.897C1062.91 995.814 1060.4 996.239 1058.05 997.146C1055.7 998.053 1053.56 999.424 1051.75 1001.18C1049.94 1002.93 1048.5 1005.03 1047.52 1007.35C1046.54 1009.67 1046.04 1012.16 1046.05 1014.68H1044.74C1036.97 1014.69 1029.36 1016.86 1022.74 1020.94C1016.91 1011.15 1007.59 1003.91 996.657 1000.68C999.896 998.906 1002.59 996.283 1004.46 993.095C1006.33 989.906 1007.3 986.272 1007.27 982.577C1007.35 979.977 1006.92 977.386 1005.98 974.959C1005.05 972.532 1003.63 970.317 1001.82 968.448C1000.02 966.578 997.85 965.091 995.456 964.076C993.061 963.06 990.487 962.537 987.886 962.537C985.285 962.537 982.71 963.06 980.316 964.076C977.921 965.091 975.755 966.578 973.947 968.448C972.139 970.317 970.725 972.532 969.791 974.959C968.856 977.386 968.419 979.977 968.506 982.577C968.479 985.931 969.275 989.241 970.825 992.217C972.375 995.192 974.632 997.741 977.397 999.641C972.692 1000.45 968.152 1002.03 963.963 1004.31C961.699 997.143 957.234 990.866 951.201 986.375C945.169 981.884 937.875 979.406 930.355 979.294C921.719 979.313 913.403 982.571 907.052 988.424C904.009 960.643 881.488 939.035 854.141 939.035C846.602 939.065 839.159 940.733 832.328 943.923C825.497 947.114 819.44 951.75 814.578 957.512C805.535 931.253 781.557 912.471 753.385 912.471C740.918 912.458 728.732 916.167 718.386 923.122C712.718 920.826 706.585 919.909 700.493 920.446C694.401 920.982 688.524 922.958 683.344 926.209C678.165 922.958 672.287 920.982 666.195 920.446C660.103 919.909 653.97 920.826 648.302 923.122C637.974 916.159 625.803 912.436 613.347 912.427C585.087 912.427 561.175 931.209 552.154 957.469C547.283 951.711 541.222 947.077 534.388 943.887C527.555 940.697 520.11 939.027 512.569 938.991C485.222 938.991 462.701 960.599 459.68 988.381C453.326 982.531 445.012 979.274 436.376 979.251C428.856 979.36 421.56 981.836 415.527 986.327C409.494 990.819 405.03 997.098 402.769 1004.27C398.577 1001.99 394.038 1000.41 389.335 999.598C392.1 997.698 394.357 995.149 395.907 992.173C397.457 989.198 398.253 985.888 398.226 982.533C398.313 979.933 397.876 977.343 396.941 974.916C396.006 972.488 394.593 970.274 392.785 968.404C390.977 966.534 388.811 965.048 386.416 964.032C384.022 963.017 381.447 962.493 378.846 962.493C376.245 962.493 373.671 963.017 371.276 964.032C368.881 965.048 366.715 966.534 364.907 968.404C363.099 970.274 361.686 972.488 360.751 974.916C359.816 977.343 359.379 979.933 359.466 982.533C359.43 986.229 360.397 989.866 362.265 993.055C364.133 996.244 366.833 998.866 370.075 1000.64C359.138 1003.87 349.821 1011.1 343.989 1020.9C337.375 1016.82 329.76 1014.65 321.99 1014.64C321.533 1014.64 321.12 1014.64 320.664 1014.64C320.47 1012.11 319.766 1009.65 318.593 1007.4C317.421 1005.16 315.804 1003.17 313.842 1001.57C311.88 999.961 309.612 998.771 307.177 998.068C304.742 997.365 302.189 997.164 299.673 997.476C297.158 997.788 294.732 998.607 292.542 999.884C290.352 1001.16 288.444 1002.87 286.933 1004.9C285.423 1006.94 284.341 1009.26 283.753 1011.73C283.165 1014.19 283.083 1016.75 283.513 1019.25C280.055 1017.05 276.045 1015.88 271.948 1015.88C268.912 1015.94 265.917 1016.6 263.137 1017.83C260.357 1019.05 257.845 1020.81 255.747 1023C253.648 1025.2 252.004 1027.79 250.908 1030.62C249.813 1033.45 249.287 1036.47 249.362 1039.51C249.361 1043.14 250.186 1046.72 251.775 1049.99H1114.87Z" fill="white" stroke="#05152B" stroke-miterlimit="10"/>
<path d="M891.792 285.867H848.337V1046.83H891.792V285.867Z" stroke="#05152B" stroke-miterlimit="10"/>
<path d="M848.316 512.466H814.926" stroke="#05152B" stroke-miterlimit="10"/>
<path d="M848.315 714.305H804.926" stroke="#05152B" stroke-miterlimit="10"/>
<path d="M891.792 285.867L849.946 338.995H891.314L848.337 285.867" stroke="#05152B" stroke-miterlimit="10"/>
<path d="M891.792 340.321L849.946 393.428H891.314L848.337 340.321" stroke="#05152B" stroke-miterlimit="10"/>
<path d="M891.792 394.753L849.946 447.882H891.314L848.337 394.753" stroke="#05152B" stroke-miterlimit="10"/>
<path d="M891.792 449.208L849.946 502.314H891.314L848.337 449.208" stroke="#05152B" stroke-miterlimit="10"/>
<path d="M891.792 503.64L849.946 556.747H891.314L848.337 503.64H815.013" stroke="#05152B" stroke-miterlimit="10"/>
<path d="M891.792 558.073L849.946 611.179H891.314L848.337 558.073" stroke="#05152B" stroke-miterlimit="10"/>
<path d="M891.792 612.527L849.946 665.633H891.314L848.337 612.527" stroke="#05152B" stroke-miterlimit="10"/>
<path d="M891.792 666.959L849.946 720.066H891.314L848.337 666.959" stroke="#05152B" stroke-miterlimit="10"/>
<path d="M891.792 721.392L849.946 774.52H891.314L848.337 721.392H804.991" stroke="#05152B" stroke-miterlimit="10"/>
<path d="M891.792 775.846L849.946 828.953H891.314L848.337 775.846" stroke="#05152B" stroke-miterlimit="10"/>
<path d="M891.792 830.279L849.946 883.385H891.314L848.337 830.279" stroke="#05152B" stroke-miterlimit="10"/>
<path d="M891.792 884.711L849.946 937.839H891.314L848.337 884.711" stroke="#05152B" stroke-miterlimit="10"/>
<path d="M891.792 939.165L849.946 992.272H891.314L848.337 939.165" stroke="#05152B" stroke-miterlimit="10"/>
<path d="M891.792 993.598L849.946 1046.7H891.314L848.337 993.598" stroke="#05152B" stroke-miterlimit="10"/>
<path d="M890.922 1048.25H474.049L533.611 983.859H831.36L890.922 1048.25Z" fill="white" stroke="#05152B" stroke-miterlimit="10"/>
<path d="M554.632 1033.84C563.684 1033.84 571.023 1026.5 571.023 1017.44C571.023 1008.39 563.684 1001.05 554.632 1001.05C545.58 1001.05 538.241 1008.39 538.241 1017.44C538.241 1026.5 545.58 1033.84 554.632 1033.84Z" fill="#05152B" stroke="#05152B" stroke-linecap="round" stroke-linejoin="round"/>
<path d="M620.173 1033.84C629.225 1033.84 636.563 1026.5 636.563 1017.44C636.563 1008.39 629.225 1001.05 620.173 1001.05C611.121 1001.05 603.782 1008.39 603.782 1017.44C603.782 1026.5 611.121 1033.84 620.173 1033.84Z" fill="#05152B" stroke="#05152B" stroke-linecap="round" stroke-linejoin="round"/>
<path d="M685.714 1033.84C694.766 1033.84 702.104 1026.5 702.104 1017.44C702.104 1008.39 694.766 1001.05 685.714 1001.05C676.661 1001.05 669.323 1008.39 669.323 1017.44C669.323 1026.5 676.661 1033.84 685.714 1033.84Z" fill="#05152B" stroke="#05152B" stroke-linecap="round" stroke-linejoin="round"/>
<path d="M751.254 1033.84C760.307 1033.84 767.645 1026.5 767.645 1017.44C767.645 1008.39 760.307 1001.05 751.254 1001.05C742.202 1001.05 734.864 1008.39 734.864 1017.44C734.864 1026.5 742.202 1033.84 751.254 1033.84Z" fill="#05152B" stroke="#05152B" stroke-linecap="round" stroke-linejoin="round"/>
<path d="M816.795 1033.84C825.847 1033.84 833.186 1026.5 833.186 1017.44C833.186 1008.39 825.847 1001.05 816.795 1001.05C807.743 1001.05 800.404 1008.39 800.404 1017.44C800.404 1026.5 807.743 1033.84 816.795 1033.84Z" fill="#05152B" stroke="#05152B" stroke-linecap="round" stroke-linejoin="round"/>
<path d="M1163.56 1046.9H201.386V1074.96H1163.56V1046.9Z" fill="#05152B" stroke="#05152B" stroke-linecap="round" stroke-linejoin="round"/>
<path d="M815.773 476.511L794.035 953.1H570.718L548.98 476.511C548.98 411.514 576.175 352.06 605.717 305.801C632.694 263.563 661.628 232.326 673.627 217.804C674.584 216.662 675.78 215.744 677.13 215.114C678.48 214.483 679.952 214.157 681.442 214.157C682.932 214.157 684.404 214.483 685.754 215.114C687.104 215.744 688.3 216.662 689.257 217.804C701.517 232.239 730.886 263.52 758.232 305.757C788.209 352.06 815.773 411.492 815.773 476.511Z" fill="white" stroke="#05152B" stroke-miterlimit="10"/>
<path d="M799.535 525.574L781.405 935.861" stroke="#05152B" stroke-miterlimit="10"/>
<path d="M759.254 337.082C781.383 376.211 799.817 423.535 801.383 474.62Z" fill="white"/>
<path d="M759.254 337.082C781.383 376.211 799.817 423.535 801.383 474.62" stroke="#05152B" stroke-miterlimit="10"/>
<path d="M758.232 305.757H605.717C632.694 263.52 661.628 232.282 673.627 217.761C674.584 216.619 675.78 215.7 677.13 215.07C678.48 214.44 679.952 214.113 681.442 214.113C682.932 214.113 684.404 214.44 685.754 215.07C687.104 215.7 688.3 216.619 689.257 217.761C701.517 232.239 730.886 263.52 758.232 305.757Z" fill="#21E6C1" stroke="#05152B" stroke-linecap="round" stroke-linejoin="round"/>
<path d="M559.523 710.327C559.523 710.327 502.873 729.892 481.57 783.085C464.875 824.844 460.462 905.145 459.332 937.752C459.268 939.608 459.578 941.457 460.244 943.19C460.91 944.923 461.918 946.504 463.208 947.839C464.498 949.174 466.044 950.235 467.754 950.96C469.463 951.684 471.301 952.057 473.157 952.056C475.648 952.06 478.093 951.389 480.233 950.115C482.372 948.84 484.126 947.009 485.309 944.817C496.395 924.253 530.959 866.821 567.001 875.559L559.523 710.327Z" fill="#21E6C1" stroke="#05152B" stroke-linecap="round" stroke-linejoin="round"/>
<path d="M805.296 709.849C805.296 709.849 862.119 729.848 883.401 783.085C900.118 824.844 904.531 905.145 905.639 937.752C905.703 939.608 905.393 941.457 904.727 943.19C904.061 944.923 903.053 946.504 901.763 947.839C900.473 949.174 898.927 950.235 897.217 950.96C895.508 951.684 893.67 952.057 891.814 952.056V952.056C889.346 952.045 886.927 951.371 884.808 950.105C882.69 948.84 880.95 947.028 879.771 944.861C868.684 924.296 833.707 867.19 797.644 875.929L805.296 709.849Z" fill="#21E6C1" stroke="#05152B" stroke-linecap="round" stroke-linejoin="round"/>
<path d="M821.077 717.196C815.967 714.392 810.673 711.937 805.23 709.849L797.47 875.885C801.197 874.989 805.055 874.768 808.861 875.233L821.077 717.196Z" fill="#05152B" stroke="#05152B" stroke-linecap="round" stroke-linejoin="round"/>
<path d="M775.732 952.752H591.761V985.381H775.732V952.752Z" fill="#05152B" stroke="#05152B" stroke-linecap="round" stroke-linejoin="round"/>
<path d="M692.074 874.029C718.698 867.617 735.084 840.837 728.672 814.213C722.261 787.589 695.48 771.204 668.856 777.615C642.232 784.027 625.847 810.807 632.259 837.431C638.67 864.055 665.45 880.44 692.074 874.029Z" fill="white" stroke="#05152B" stroke-miterlimit="10"/>
<path d="M689.41 863.784C710.404 858.868 723.438 837.863 718.522 816.869C713.605 795.874 692.6 782.841 671.606 787.757C650.612 792.674 637.578 813.678 642.495 834.673C647.411 855.667 668.416 868.7 689.41 863.784Z" fill="#21E6C1" stroke="#05152B" stroke-miterlimit="10"/>
<path d="M687.839 856.988C705.092 852.942 715.797 835.676 711.751 818.423C707.704 801.171 690.438 790.466 673.186 794.512C655.934 798.559 645.228 815.825 649.275 833.077C653.321 850.329 670.587 861.035 687.839 856.988Z" fill="white" stroke="#05152B" stroke-miterlimit="10"/>
<path d="M685.839 848.522C698.403 845.571 706.196 832.993 703.244 820.429C700.293 807.865 687.715 800.072 675.151 803.023C662.587 805.975 654.794 818.553 657.746 831.117C660.697 843.681 673.275 851.474 685.839 848.522Z" fill="#21E6C1" stroke="#05152B" stroke-miterlimit="10"/>
<path d="M680.496 840.539C688.648 840.539 695.257 833.931 695.257 825.779C695.257 817.627 688.648 811.019 680.496 811.019C672.345 811.019 665.736 817.627 665.736 825.779C665.736 833.931 672.345 840.539 680.496 840.539Z" fill="white" stroke="#05152B" stroke-miterlimit="10"/>
<path d="M687.322 825.779C687.327 824.423 686.928 823.096 686.177 821.966C685.426 820.837 684.357 819.956 683.105 819.435C681.853 818.914 680.474 818.776 679.144 819.04C677.814 819.303 676.592 819.956 675.633 820.915C674.674 821.874 674.021 823.096 673.758 824.426C673.494 825.757 673.632 827.135 674.153 828.387C674.674 829.64 675.555 830.709 676.684 831.46C677.813 832.21 679.14 832.609 680.496 832.604C682.307 832.604 684.043 831.885 685.323 830.605C686.603 829.325 687.322 827.589 687.322 825.779V825.779Z" fill="#21E6C1" stroke="#05152B" stroke-miterlimit="10"/>
<path d="M683.301 815.062L680.496 825.779L690.605 827.996L683.301 815.062Z" fill="white" stroke="#05152B" stroke-miterlimit="10"/>
<path d="M687.627 821.04L732.038 796.845" stroke="#05152B" stroke-miterlimit="10"/>
<path d="M717.777 804.801L718.451 793.193L739.32 781.259V794.519L717.777 804.801Z" fill="white" stroke="#05152B" stroke-miterlimit="10"/>
<path d="M748.276 800.823L739.124 794.062L717.69 805.345L728.016 811.323L748.276 800.823Z" fill="white" stroke="#05152B" stroke-miterlimit="10"/>
<path d="M680.496 731.587C707.881 731.587 730.081 709.387 730.081 682.002C730.081 654.617 707.881 632.417 680.496 632.417C653.111 632.417 630.911 654.617 630.911 682.002C630.911 709.387 653.111 731.587 680.496 731.587Z" stroke="#05152B" stroke-miterlimit="10"/>
<path d="M665.736 675.046H650.824V705.197H665.736V675.046Z" fill="#21E6C1" stroke="#05152B" stroke-miterlimit="10"/>
<path d="M688.083 665.459H673.171V705.197H688.083V665.459Z" fill="#21E6C1" stroke="#05152B" stroke-miterlimit="10"/>
<path d="M710.43 656.547H695.517V705.197H710.43V656.547Z" fill="#21E6C1" stroke="#05152B" stroke-miterlimit="10"/>
<path d="M680.496 591.354C707.881 591.354 730.081 569.154 730.081 541.769C730.081 514.384 707.881 492.184 680.496 492.184C653.111 492.184 630.911 514.384 630.911 541.769C630.911 569.154 653.111 591.354 680.496 591.354Z" stroke="#05152B" stroke-miterlimit="10"/>
<path d="M716.43 548.508V535.639H707.886C707.226 532.688 706.08 529.867 704.495 527.291L710.669 521.096L701.517 512.009L695.365 518.161C692.833 516.58 690.056 515.426 687.148 514.748V505.749H674.301V514.683C671.456 515.345 668.739 516.469 666.258 518.009L659.736 511.488L650.65 520.596L657.171 527.117C655.656 529.56 654.527 532.222 653.824 535.008H644.52V547.877H653.693C654.327 550.68 655.398 553.365 656.867 555.834L650.345 562.355L659.432 571.442L665.823 565.072C668.283 566.649 670.975 567.83 673.801 568.572V577.659H686.648V568.964C689.565 568.336 692.362 567.242 694.93 565.725L701.191 571.963L710.278 562.877L704.213 556.79C705.846 554.251 707.051 551.46 707.778 548.53L716.43 548.508ZM680.801 556.421C677.897 556.425 675.057 555.567 672.64 553.957C670.224 552.346 668.34 550.055 667.227 547.373C666.113 544.69 665.821 541.738 666.387 538.89C666.952 536.042 668.35 533.425 670.403 531.372C672.457 529.318 675.073 527.92 677.922 527.355C680.77 526.789 683.722 527.082 686.404 528.195C689.086 529.308 691.378 531.192 692.988 533.609C694.599 536.025 695.457 538.865 695.452 541.769C695.446 545.653 693.901 549.376 691.154 552.123C688.408 554.869 684.685 556.415 680.801 556.421V556.421Z" fill="#21E6C1" stroke="#05152B" stroke-miterlimit="10"/>
<path d="M680.496 451.121C707.881 451.121 730.081 428.921 730.081 401.536C730.081 374.151 707.881 351.951 680.496 351.951C653.111 351.951 630.911 374.151 630.911 401.536C630.911 428.921 653.111 451.121 680.496 451.121Z" stroke="#05152B" stroke-miterlimit="10"/>
<path d="M706.126 390.232C705.821 383.625 703.017 377.38 698.283 372.762C693.548 368.144 687.236 365.496 680.623 365.355C674.011 365.214 667.591 367.591 662.664 372.003C657.738 376.416 654.671 382.535 654.084 389.123C653.806 395.253 655.726 401.282 659.497 406.123C663.601 411.22 665.895 417.536 666.019 424.078V425.47H694.278V424.078C694.323 417.614 696.552 411.355 700.604 406.318C704.211 401.735 706.158 396.064 706.126 390.232Z" fill="#21E6C1" stroke="#05152B" stroke-miterlimit="10"/>
<path d="M685.887 430.035H674.562C672.281 430.035 670.432 431.884 670.432 434.165V439.686C670.432 441.968 672.281 443.817 674.562 443.817H685.887C688.168 443.817 690.018 441.968 690.018 439.686V434.165C690.018 431.884 688.168 430.035 685.887 430.035Z" fill="white" stroke="#05152B" stroke-linecap="round" stroke-linejoin="round"/>
<path d="M694.409 425.47H665.975V431.926H694.409V425.47Z" fill="white" stroke="#05152B" stroke-linecap="round" stroke-linejoin="round"/>
<path d="M691.539 438.904H668.801L665.975 432.426H694.387L691.539 438.904Z" fill="white" stroke="#05152B" stroke-linecap="round" stroke-linejoin="round"/>
<path d="M296.078 734.783C294.948 734.807 293.832 734.537 292.839 734C291.955 733.523 291.264 732.755 290.882 731.826C290.379 730.659 290.113 729.402 290.1 728.131L293.817 727.501C293.824 728.233 293.911 728.962 294.078 729.674C294.185 730.161 294.417 730.61 294.752 730.979C295.068 731.261 295.481 731.409 295.904 731.392C296.122 731.417 296.343 731.382 296.542 731.29C296.742 731.198 296.912 731.052 297.034 730.87C297.238 730.505 297.343 730.093 297.339 729.674C297.352 728.9 297.124 728.14 296.686 727.501C296.201 726.836 295.639 726.23 295.013 725.696L292.839 723.805C292.088 723.189 291.442 722.455 290.926 721.631C290.402 720.697 290.147 719.636 290.187 718.566C290.137 717.826 290.247 717.084 290.51 716.39C290.772 715.696 291.181 715.067 291.708 714.545C292.875 713.573 294.365 713.076 295.882 713.153C296.781 713.118 297.675 713.297 298.491 713.675C299.141 713.989 299.691 714.478 300.078 715.088C300.448 715.667 300.713 716.307 300.86 716.979C301.006 717.652 301.101 718.335 301.143 719.023L297.447 719.588C297.426 719.02 297.375 718.454 297.295 717.892C297.242 717.472 297.077 717.074 296.817 716.74C296.682 716.595 296.516 716.482 296.332 716.411C296.147 716.339 295.949 716.311 295.752 716.327C295.535 716.311 295.318 716.352 295.123 716.448C294.928 716.543 294.763 716.689 294.643 716.871C294.406 717.241 294.278 717.67 294.273 718.11C294.247 718.762 294.422 719.407 294.773 719.957C295.184 720.511 295.658 721.014 296.186 721.457L298.36 723.327C299.202 724.1 299.933 724.985 300.534 725.957C301.202 727.047 301.534 728.31 301.491 729.587C301.497 730.528 301.266 731.456 300.817 732.283C300.378 733.074 299.721 733.723 298.925 734.152C298.046 734.602 297.065 734.819 296.078 734.783Z" fill="#05152B"/>
<path d="M305.751 734.479V716.61H302.49V713.349H313.36V716.61H310.099V734.522L305.751 734.479Z" fill="#05152B"/>
<path d="M313.403 734.479L317.49 713.349H322.272L326.337 734.479H322.359L321.598 729.848H318.251L317.446 734.479H313.403ZM318.642 727.218H321.098L319.903 718.784L318.642 727.218Z" fill="#05152B"/>
<path d="M333.598 734.805C332.399 734.871 331.21 734.551 330.207 733.892C329.34 733.272 328.711 732.374 328.424 731.348C328.038 730.103 327.855 728.804 327.881 727.501V720.436C327.849 719.111 328.032 717.789 328.424 716.523C328.743 715.476 329.42 714.576 330.337 713.979C331.466 713.333 332.756 713.024 334.054 713.088C335.296 713.029 336.531 713.291 337.641 713.849C338.511 714.325 339.182 715.096 339.532 716.023C339.949 717.066 340.148 718.183 340.119 719.305V720.523H335.924V719.044C335.961 718.552 335.961 718.058 335.924 717.566C335.878 717.19 335.71 716.839 335.446 716.566C335.1 716.296 334.666 716.164 334.228 716.197C333.999 716.176 333.769 716.204 333.551 716.279C333.334 716.354 333.135 716.474 332.968 716.631C332.703 716.957 332.53 717.347 332.468 717.762C332.434 718.254 332.434 718.748 332.468 719.24V728.609C332.458 729.142 332.509 729.675 332.62 730.196C332.702 730.615 332.906 731.001 333.207 731.305C333.571 731.557 334.003 731.692 334.446 731.692C334.889 731.692 335.321 731.557 335.685 731.305C335.999 730.988 336.218 730.588 336.315 730.153C336.426 729.616 336.477 729.07 336.467 728.522V726.348H334.141V723.74H340.076V734.609H337.359L337.098 732.718C336.824 733.348 336.389 733.896 335.837 734.305C335.163 734.705 334.378 734.88 333.598 734.805Z" fill="#05152B"/>
<path d="M343.119 734.479V713.349H352.315V716.327H347.423V721.936H351.206V724.936H347.423V731.566H352.38V734.479H343.119Z" fill="#05152B"/>
<path d="M366.618 734.479V729.653H360.227V726.392L365.727 713.349H370.422V726.392H372.466V729.653H370.422V734.566L366.618 734.479ZM363.379 726.479H366.618V717.501L363.379 726.479Z" fill="#05152B"/>
<path d="M289.274 753.934H395.269" stroke="#05152B" stroke-miterlimit="10"/>
<path d="M289.274 768.694H395.269" stroke="#05152B" stroke-miterlimit="10"/>
<path d="M289.274 783.433H395.269" stroke="#05152B" stroke-miterlimit="10"/>
<path d="M289.274 798.171H395.269" stroke="#05152B" stroke-miterlimit="10"/>
<path d="M630.912 824.757H504.395V723.349H393.009" stroke="#05152B" stroke-miterlimit="10"/>
<path d="M296.078 599.766C294.948 599.806 293.826 599.56 292.817 599.049C291.941 598.563 291.253 597.797 290.861 596.875C290.361 595.706 290.095 594.451 290.078 593.18L293.795 592.549C293.8 593.281 293.888 594.011 294.056 594.723C294.152 595.213 294.386 595.665 294.73 596.027C295.044 596.315 295.456 596.471 295.882 596.462C296.1 596.487 296.321 596.452 296.521 596.36C296.72 596.268 296.89 596.123 297.013 595.941C297.217 595.575 297.322 595.163 297.317 594.745C297.33 593.97 297.102 593.211 296.665 592.571C296.179 591.906 295.618 591.301 294.991 590.767L292.817 588.854C292.065 588.239 291.418 587.505 290.904 586.68C290.381 585.738 290.125 584.67 290.165 583.593C290.116 582.856 290.226 582.117 290.489 581.427C290.751 580.737 291.16 580.111 291.687 579.593C292.848 578.612 294.342 578.114 295.86 578.202C296.759 578.167 297.653 578.346 298.469 578.724C299.118 579.03 299.668 579.512 300.056 580.115C300.427 580.702 300.692 581.349 300.838 582.028C300.986 582.701 301.08 583.384 301.121 584.071L297.426 584.615C297.426 583.984 297.426 583.419 297.273 582.919C297.217 582.5 297.052 582.103 296.795 581.767C296.658 581.626 296.492 581.516 296.308 581.444C296.124 581.373 295.927 581.342 295.73 581.354C295.512 581.342 295.294 581.388 295.1 581.487C294.905 581.587 294.74 581.736 294.621 581.919C294.375 582.285 294.246 582.717 294.252 583.158C294.228 583.811 294.403 584.455 294.752 585.006C295.163 585.56 295.637 586.063 296.165 586.506L298.339 588.376C299.19 589.139 299.923 590.026 300.512 591.006C301.18 592.096 301.513 593.359 301.469 594.636C301.476 595.577 301.244 596.505 300.795 597.332C300.343 598.113 299.69 598.759 298.904 599.201C298.025 599.625 297.052 599.82 296.078 599.766V599.766Z" fill="#05152B"/>
<path d="M305.751 599.484V581.572H302.49V578.354H313.36V581.572H310.099V599.484H305.751Z" fill="#05152B"/>
<path d="M313.403 599.484L317.49 578.354H322.272L326.337 599.484H322.359L321.598 594.876H318.251L317.446 599.528L313.403 599.484ZM318.642 592.202H321.098L319.816 583.68L318.642 592.202Z" fill="#05152B"/>
<path d="M333.598 599.788C332.401 599.861 331.213 599.549 330.207 598.897C329.343 598.264 328.716 597.362 328.424 596.332C328.035 595.087 327.852 593.788 327.881 592.484V585.419C327.852 584.094 328.035 582.773 328.424 581.506C328.749 580.469 329.426 579.577 330.337 578.985C331.466 578.339 332.756 578.029 334.054 578.094C335.296 578.034 336.531 578.296 337.641 578.854C338.509 579.333 339.178 580.103 339.533 581.028C339.945 582.072 340.144 583.188 340.119 584.311V585.55H335.924V584.006C335.961 583.522 335.961 583.035 335.924 582.55C335.874 582.168 335.707 581.811 335.446 581.528C335.097 581.265 334.663 581.141 334.228 581.18C333.999 581.155 333.767 581.182 333.549 581.257C333.331 581.332 333.133 581.454 332.968 581.615C332.703 581.94 332.53 582.331 332.468 582.745C332.433 583.238 332.433 583.732 332.468 584.224V593.593C332.459 594.126 332.51 594.658 332.62 595.18C332.697 595.594 332.902 595.974 333.207 596.267C333.555 596.55 333.998 596.69 334.446 596.658C334.669 596.676 334.894 596.648 335.107 596.577C335.32 596.506 335.517 596.393 335.685 596.245C336.005 595.941 336.225 595.547 336.315 595.115C336.426 594.578 336.477 594.032 336.467 593.484V591.31H334.141V588.702H340.076V599.571H337.359L337.098 597.658C336.825 598.295 336.39 598.849 335.837 599.267C335.165 599.674 334.381 599.857 333.598 599.788Z" fill="#05152B"/>
<path d="M343.119 599.484V578.354H352.315V581.333H347.423V586.941H351.206V589.941H347.423V596.571H352.38V599.484H343.119Z" fill="#05152B"/>
<path d="M366.14 599.854C364.97 599.915 363.807 599.635 362.792 599.049C361.979 598.536 361.354 597.774 361.01 596.876C360.625 595.81 360.441 594.682 360.466 593.55V592.702H364.575V593.419C364.571 593.981 364.622 594.541 364.727 595.093C364.8 595.47 364.981 595.817 365.249 596.093C365.391 596.218 365.556 596.313 365.735 596.373C365.914 596.432 366.104 596.456 366.292 596.441C366.671 596.461 367.044 596.337 367.336 596.093C367.578 595.792 367.735 595.432 367.792 595.05C367.888 594.497 367.931 593.937 367.923 593.376C367.963 592.533 367.807 591.692 367.466 590.919C367.267 590.607 366.984 590.358 366.649 590.2C366.315 590.042 365.942 589.983 365.575 590.028H364.879V587.05H365.51C365.866 587.091 366.228 587.043 366.562 586.91C366.896 586.778 367.191 586.564 367.423 586.289C367.81 585.563 367.984 584.741 367.923 583.92C367.959 583.249 367.84 582.58 367.575 581.963C367.441 581.724 367.24 581.528 366.997 581.401C366.754 581.273 366.479 581.219 366.205 581.246C365.933 581.22 365.659 581.282 365.425 581.423C365.19 581.564 365.006 581.776 364.901 582.028C364.673 582.678 364.562 583.362 364.575 584.05V584.985H360.466V583.833C360.427 582.75 360.659 581.674 361.14 580.702C361.566 579.86 362.242 579.169 363.075 578.724C364.016 578.246 365.063 578.014 366.118 578.05C367.184 578.02 368.242 578.244 369.205 578.703C370.035 579.111 370.712 579.774 371.14 580.594C371.618 581.558 371.849 582.626 371.814 583.702C371.854 584.785 371.582 585.856 371.031 586.789C370.615 587.526 369.942 588.083 369.14 588.354C369.663 588.525 370.14 588.815 370.531 589.202C370.955 589.665 371.274 590.213 371.466 590.811C371.721 591.619 371.839 592.464 371.814 593.311C371.826 594.457 371.642 595.596 371.27 596.68C370.931 597.621 370.299 598.429 369.466 598.984C368.469 599.601 367.311 599.904 366.14 599.854V599.854Z" fill="#05152B"/>
<path d="M289.274 618.94H395.269" stroke="#05152B" stroke-miterlimit="10"/>
<path d="M289.274 633.678H395.269" stroke="#05152B" stroke-miterlimit="10"/>
<path d="M289.274 648.438H395.269" stroke="#05152B" stroke-miterlimit="10"/>
<path d="M289.274 663.177H395.269" stroke="#05152B" stroke-miterlimit="10"/>
<path d="M630.912 685.241H504.395V583.811H393.009" stroke="#05152B" stroke-miterlimit="10"/>
<path d="M296.078 464.772C294.948 464.812 293.826 464.566 292.817 464.055C291.939 463.571 291.25 462.805 290.861 461.881C290.36 460.72 290.094 459.472 290.078 458.207L293.795 457.577C293.8 458.309 293.888 459.038 294.056 459.751C294.152 460.241 294.386 460.693 294.73 461.055C295.044 461.343 295.456 461.499 295.882 461.49C296.1 461.515 296.321 461.48 296.521 461.388C296.72 461.296 296.89 461.15 297.013 460.968C297.215 460.602 297.32 460.191 297.317 459.773C297.33 458.998 297.102 458.238 296.665 457.599C296.195 456.915 295.64 456.294 295.013 455.751L292.839 453.838C292.086 453.223 291.44 452.489 290.926 451.664C290.405 450.721 290.149 449.654 290.187 448.577C290.138 447.84 290.248 447.101 290.511 446.411C290.773 445.721 291.182 445.095 291.708 444.577C292.87 443.596 294.364 443.098 295.882 443.186C296.781 443.151 297.675 443.33 298.491 443.708C299.14 444.014 299.69 444.496 300.078 445.099C300.449 445.686 300.714 446.334 300.86 447.012C301.008 447.685 301.102 448.368 301.143 449.056L297.447 449.599C297.426 449.032 297.375 448.466 297.295 447.903C297.238 447.484 297.074 447.087 296.817 446.751C296.682 446.606 296.516 446.494 296.332 446.422C296.147 446.35 295.949 446.322 295.752 446.338C295.534 446.326 295.316 446.372 295.121 446.472C294.927 446.571 294.762 446.72 294.643 446.903C294.397 447.269 294.268 447.702 294.274 448.143C294.251 448.788 294.425 449.425 294.774 449.969C295.184 450.522 295.659 451.025 296.186 451.469L298.36 453.36C299.206 454.121 299.938 454.999 300.534 455.968C301.198 457.068 301.53 458.336 301.491 459.62C301.498 460.554 301.266 461.475 300.817 462.294C300.372 463.087 299.718 463.741 298.926 464.185C298.042 464.62 297.062 464.822 296.078 464.772V464.772Z" fill="#05152B"/>
<path d="M305.751 464.446V446.512H302.49V443.36H313.36V446.556H310.099V464.446H305.751Z" fill="#05152B"/>
<path d="M313.403 464.446L317.49 443.317H322.272L326.337 464.446H322.359L321.598 459.794H318.251L317.446 464.446H313.403ZM318.642 457.164H321.098L319.816 448.643L318.642 457.164Z" fill="#05152B"/>
<path d="M333.598 464.794C332.402 464.857 331.217 464.545 330.207 463.903C329.343 463.27 328.716 462.368 328.424 461.338C328.038 460.093 327.855 458.794 327.881 457.49V450.425C327.849 449.1 328.032 447.779 328.424 446.512C328.749 445.475 329.426 444.583 330.337 443.991C331.459 443.329 332.754 443.019 334.054 443.099C335.297 443.029 336.535 443.292 337.641 443.86C338.509 444.339 339.178 445.109 339.532 446.034C339.947 447.078 340.147 448.194 340.119 449.317V450.556H335.924V449.056C335.96 448.564 335.96 448.07 335.924 447.578C335.873 447.202 335.706 446.853 335.446 446.578C335.1 446.307 334.666 446.175 334.228 446.208C333.998 446.186 333.765 446.216 333.547 446.294C333.329 446.373 333.131 446.5 332.968 446.665C332.695 446.985 332.521 447.378 332.468 447.795C332.433 448.287 332.433 448.781 332.468 449.273V458.642C332.459 459.175 332.51 459.708 332.62 460.229C332.706 460.641 332.91 461.018 333.207 461.316C333.555 461.6 333.998 461.74 334.446 461.707C334.669 461.725 334.894 461.698 335.107 461.627C335.32 461.556 335.517 461.443 335.685 461.294C335.999 460.986 336.217 460.593 336.315 460.164C336.426 459.628 336.477 459.081 336.467 458.534V456.36H334.141V453.577H340.076V464.446H337.359L337.098 462.533C336.831 463.168 336.395 463.717 335.837 464.12C335.188 464.59 334.399 464.828 333.598 464.794Z" fill="#05152B"/>
<path d="M343.119 464.446V443.36H352.315V446.338H347.423V451.947H351.206V454.947H347.423V461.468H352.38V464.446H343.119Z" fill="#05152B"/>
<path d="M360.532 464.446V461.598L365.684 453.686L366.77 451.99C367.097 451.467 367.374 450.914 367.596 450.338C367.815 449.762 367.926 449.15 367.923 448.534C367.955 447.984 367.818 447.438 367.531 446.969C367.4 446.796 367.228 446.658 367.031 446.567C366.834 446.476 366.618 446.435 366.401 446.447C366.182 446.429 365.962 446.458 365.755 446.533C365.549 446.608 365.361 446.727 365.205 446.882C364.909 447.194 364.712 447.588 364.64 448.012C364.53 448.519 364.479 449.037 364.488 449.555V450.534H360.532V449.49C360.511 448.354 360.71 447.225 361.119 446.164C361.483 445.224 362.138 444.424 362.988 443.882C363.988 443.278 365.147 442.99 366.314 443.056C367.076 442.997 367.841 443.097 368.563 443.347C369.285 443.598 369.948 443.994 370.509 444.512C371.499 445.636 372.007 447.104 371.922 448.599C371.932 449.406 371.8 450.208 371.531 450.968C371.269 451.731 370.919 452.461 370.488 453.142C370.075 453.816 369.618 454.512 369.118 455.207L365.053 461.338H371.335V464.446H360.532Z" fill="#05152B"/>
<path d="M289.274 483.945H395.269" stroke="#05152B" stroke-miterlimit="10"/>
<path d="M289.274 498.684H395.269" stroke="#05152B" stroke-miterlimit="10"/>
<path d="M289.274 513.423H395.269" stroke="#05152B" stroke-miterlimit="10"/>
<path d="M289.274 528.183H395.269" stroke="#05152B" stroke-miterlimit="10"/>
<path d="M630.912 545.725H504.395V444.295H393.009" stroke="#05152B" stroke-miterlimit="10"/>
<path d="M296.078 305.757C294.948 305.797 293.826 305.55 292.817 305.04C291.941 304.553 291.253 303.788 290.861 302.866C290.361 301.697 290.095 300.441 290.078 299.17L293.795 298.54C293.8 299.272 293.888 300.001 294.056 300.714C294.152 301.204 294.386 301.656 294.73 302.018C295.044 302.306 295.456 302.462 295.882 302.453C296.1 302.478 296.321 302.443 296.521 302.351C296.72 302.259 296.89 302.113 297.013 301.931C297.217 301.566 297.322 301.154 297.317 300.735C297.33 299.961 297.102 299.201 296.665 298.562C296.179 297.897 295.618 297.291 294.991 296.757L292.839 294.888C292.086 294.273 291.44 293.539 290.926 292.714C290.403 291.772 290.147 290.704 290.187 289.627C290.138 288.89 290.248 288.151 290.511 287.461C290.773 286.771 291.182 286.145 291.708 285.627C292.826 284.578 294.306 284.001 295.839 284.019C296.737 283.983 297.631 284.162 298.447 284.54C299.096 284.846 299.646 285.328 300.034 285.932C300.405 286.518 300.67 287.166 300.817 287.845C300.964 288.517 301.059 289.201 301.099 289.888L297.404 290.54C297.404 289.91 297.404 289.345 297.252 288.845C297.195 288.426 297.03 288.029 296.773 287.693C296.636 287.551 296.47 287.441 296.286 287.37C296.102 287.298 295.905 287.268 295.708 287.28C295.49 287.268 295.273 287.314 295.078 287.413C294.883 287.512 294.718 287.661 294.6 287.845C294.354 288.211 294.225 288.643 294.23 289.084C294.207 289.736 294.381 290.38 294.73 290.932C295.141 291.485 295.615 291.988 296.143 292.431L298.317 294.301C299.168 295.065 299.901 295.951 300.491 296.931C301.177 297.993 301.539 299.232 301.534 300.496C301.541 301.437 301.309 302.365 300.86 303.192C300.408 303.973 299.755 304.619 298.969 305.061C298.082 305.541 297.086 305.781 296.078 305.757V305.757Z" fill="#05152B"/>
<path d="M305.751 305.453V287.541H302.49V284.323H313.36V287.541H310.099V305.453H305.751Z" fill="#05152B"/>
<path d="M313.403 305.453L317.49 284.323H322.272L326.337 305.453H322.359L321.598 300.801H318.251L317.446 305.453H313.403ZM318.642 298.17H321.098L319.816 289.649L318.642 298.17Z" fill="#05152B"/>
<path d="M333.598 305.757C332.401 305.83 331.213 305.518 330.207 304.866C329.343 304.233 328.716 303.33 328.424 302.301C328.035 301.056 327.852 299.757 327.881 298.453V291.388C327.852 290.063 328.035 288.742 328.424 287.475C328.749 286.438 329.426 285.546 330.337 284.954C331.486 284.276 332.809 283.951 334.141 284.019C335.383 283.959 336.618 284.222 337.728 284.78C338.596 285.258 339.265 286.028 339.619 286.954C340.032 287.998 340.231 289.114 340.206 290.236V291.475H335.924V289.975C335.961 289.49 335.961 289.003 335.924 288.519C335.874 288.137 335.707 287.78 335.446 287.497C335.097 287.234 334.663 287.11 334.228 287.149C333.999 287.124 333.767 287.15 333.549 287.226C333.331 287.301 333.133 287.423 332.968 287.584C332.703 287.909 332.53 288.3 332.468 288.714C332.433 289.206 332.433 289.7 332.468 290.193V299.562C332.459 300.095 332.51 300.627 332.62 301.149C332.697 301.563 332.902 301.943 333.207 302.236C333.555 302.519 333.998 302.659 334.446 302.627C334.669 302.645 334.894 302.617 335.107 302.546C335.32 302.475 335.517 302.362 335.685 302.214C335.999 301.905 336.217 301.513 336.315 301.083C336.375 300.542 336.375 299.995 336.315 299.453V297.279H334.141V294.671H340.076V305.54H337.359L337.098 303.583C336.825 304.22 336.39 304.775 335.837 305.192C335.17 305.615 334.386 305.813 333.598 305.757Z" fill="#05152B"/>
<path d="M343.119 305.453V284.323H352.315V287.301H347.423V292.91H351.206V295.91H347.423V302.431H352.38V305.344L343.119 305.453Z" fill="#05152B"/>
<path d="M363.14 305.453V288.497L362.51 288.78L361.64 289.084L360.749 289.388L360.097 289.649V286.671L360.945 286.258L362.075 285.671C362.469 285.477 362.847 285.252 363.205 284.997C363.509 284.81 363.787 284.583 364.031 284.323H367.162V305.453H363.14Z" fill="#05152B"/>
<path d="M289.274 324.908H395.269" stroke="#05152B" stroke-miterlimit="10"/>
<path d="M289.274 339.647H395.269" stroke="#05152B" stroke-miterlimit="10"/>
<path d="M289.274 354.407H395.269" stroke="#05152B" stroke-miterlimit="10"/>
<path d="M289.274 369.146H395.269" stroke="#05152B" stroke-miterlimit="10"/>
<path d="M630.912 401.536H504.395V295.431H393.009" stroke="#05152B" stroke-miterlimit="10"/>
<path d="M1043.98 1123.4C1041.57 1128.26 1038.26 1132.62 1034.24 1136.27C1028.33 1141.13 1017.55 1149.16 1015.11 1151.24C1012.68 1153.33 1012.94 1155.42 1021.37 1157.76C1029.81 1160.11 1041.89 1160.2 1048.15 1157.76C1054.42 1155.33 1060.35 1155.59 1063.48 1154.29C1066.61 1152.98 1068.35 1151.5 1068.7 1148.03C1069.05 1144.55 1065.91 1123.11 1065.91 1123.11L1043.98 1123.4Z" fill="#21E6C1" stroke="#05152B" stroke-linecap="round" stroke-linejoin="round"/>
<path d="M1068.65 1145.64C1064.5 1146.86 1060.45 1148.38 1056.52 1150.2C1046.42 1154.72 1044.68 1156.11 1032.16 1156.11C1026.24 1156.29 1020.47 1154.34 1015.87 1150.61L1015.11 1151.24C1012.68 1153.42 1012.94 1155.42 1021.37 1157.77C1029.81 1160.11 1041.89 1160.2 1048.15 1157.77C1054.42 1155.33 1060.35 1155.59 1063.48 1154.29C1066.61 1152.98 1068.35 1151.5 1068.7 1148.03C1068.73 1147.23 1068.72 1146.43 1068.65 1145.64V1145.64Z" fill="white" stroke="#05152B" stroke-linecap="round" stroke-linejoin="round"/>
<path d="M1084.7 1127.22C1084.7 1127.22 1078.44 1146.79 1075.65 1151.59C1072.87 1156.4 1066.61 1161.33 1066.96 1164.81C1067.31 1168.29 1073.48 1169.33 1084.35 1169.33C1095.22 1169.33 1102.46 1167.16 1105.59 1161.68C1108.72 1156.2 1109.07 1154.72 1110.8 1151.24C1112.54 1147.77 1109.76 1126.88 1109.76 1126.88C1109.76 1126.88 1087.83 1127.57 1084.7 1127.22Z" fill="#21E6C1" stroke="#05152B" stroke-linecap="round" stroke-linejoin="round"/>
<path d="M1105.59 1161.68C1108.72 1156.11 1109.07 1154.72 1110.8 1151.24C1111.39 1149 1111.57 1146.66 1111.33 1144.35C1110.04 1146.53 1108.59 1149.31 1106.98 1152.29C1102.8 1159.94 1100.46 1163.42 1086.09 1164.11C1079.84 1164.64 1073.54 1164.12 1067.46 1162.57C1067.11 1163.24 1066.93 1163.99 1066.96 1164.74C1067.31 1168.22 1073.48 1169.26 1084.35 1169.26C1095.22 1169.26 1102.46 1167.24 1105.59 1161.68Z" fill="white" stroke="#05152B" stroke-linecap="round" stroke-linejoin="round"/>
<path d="M1012.37 885.385C1012.37 885.385 1010.63 919.84 1012.03 946.252C1013.42 972.664 1028.03 1022.81 1028.03 1022.81C1028.03 1022.81 1034.98 1065.27 1037.07 1077.44C1039.16 1089.62 1043.59 1117.11 1043.59 1117.11L1067.26 1115.72V1075.72C1067.26 1068.42 1066.22 1022.49 1066.22 1022.49C1066.22 1022.49 1078.39 1085.12 1079.44 1092.05C1080.48 1098.98 1082.91 1119.55 1082.91 1119.55C1086.86 1120.83 1090.95 1121.64 1095.09 1121.98C1099.61 1121.98 1110.76 1118.85 1110.76 1118.85C1110.76 1118.85 1114.93 1077.09 1114.59 1064.51C1114.24 1051.92 1108.67 1033.18 1106.93 1027.55C1105.2 1021.92 1099.96 1005.64 1100.41 1004.25C1100.87 1002.86 1104.61 956.926 1104.61 947.513V922.623L1097.28 885.668L1094.15 880.103C1094.15 880.103 1053.44 887.059 1035 882.276C1016.57 877.494 1011.7 876.016 1011.7 876.016L1012.37 885.385Z" fill="#05152B" stroke="#05152B" stroke-linecap="round" stroke-linejoin="round"/>
<path d="M1037.37 932.013L1050.24 941.752C1050.24 941.752 1057.92 994.293 1062.44 1010.66" stroke="#949494" stroke-linecap="round" stroke-linejoin="round"/>
<path d="M1039.81 1107.05C1039.81 1107.05 1052.33 1106.7 1061.05 1106.7C1069.76 1106.7 1071.13 1107.05 1071.13 1109.14C1071.13 1111.22 1072.18 1123.74 1071.13 1125.14C1070.09 1126.53 1060 1126.53 1054.78 1126.53C1049.57 1126.53 1042.59 1127.57 1041.89 1124.35C1041.51 1121.07 1040.93 1117.82 1040.16 1114.61C1039.11 1111.92 1037.72 1109.48 1039.81 1107.05Z" fill="#707070" stroke="#05152B" stroke-linecap="round" stroke-linejoin="round"/>
<path d="M1079.76 1109.48C1079.2 1111.16 1078.96 1112.93 1079.07 1114.7C1079.63 1118.62 1079.98 1122.57 1080.11 1126.53C1080.11 1129.66 1079.41 1128.96 1086.63 1131.4C1093.85 1133.83 1109.61 1131.4 1111.35 1129.22C1113.09 1127.05 1113.09 1116.01 1113.09 1113.57C1113.09 1111.14 1112.39 1110.09 1109.96 1110.79C1107.52 1111.48 1094.98 1113.57 1090.39 1112.53C1087.78 1111.94 1085.22 1111.12 1082.74 1110.09C1082.74 1110.09 1080.52 1107.4 1079.76 1109.48Z" fill="#707070" stroke="#05152B" stroke-linecap="round" stroke-linejoin="round"/>
<path d="M1083.31 733.326L1070.09 726.37L1037.02 735.413C1037.02 735.413 1027.63 751.76 1025.89 765.695C1024.16 779.629 1021.72 849.887 1021.72 862.777C1021.72 875.668 1021.03 885.385 1021.03 885.385C1021.03 885.385 1029.72 891.646 1044.94 892.341C1054.45 892.903 1064 892.67 1073.48 891.646C1076.96 891.298 1088.44 884.69 1088.44 884.69C1088.44 884.69 1086.26 818.584 1086.26 809.171C1086.26 799.758 1092.78 755.239 1094.26 748.978C1095.74 742.717 1083.31 733.326 1083.31 733.326Z" fill="#707070" stroke="#05152B" stroke-linecap="round" stroke-linejoin="round"/>
<path d="M1063.33 739.522C1065.76 746.195 1061.31 753.934 1053.39 756.912C1045.48 759.89 1037.09 756.738 1034.66 750.065C1032.22 743.391 1036.68 735.652 1044.59 732.674C1052.5 729.696 1060.89 732.848 1063.33 739.522Z" fill="white" stroke="#05152B" stroke-linecap="round" stroke-linejoin="round"/>
<path d="M1044.68 744.109C1044.68 744.109 1057.57 758.369 1058.61 757.673C1059.65 756.978 1078.44 731.24 1078.44 731.24L1073.57 723.24L1044.68 744.109Z" fill="white" stroke="#05152B" stroke-linecap="round" stroke-linejoin="round"/>
<path d="M1043.63 728.457C1042.57 730.748 1041.29 732.932 1039.81 734.978C1038.07 737.152 1033.55 753.065 1033.55 753.065L1044.68 744.022C1044.68 744.022 1045.37 733.935 1045.72 731.5C1045.78 730.829 1045.61 730.158 1045.23 729.602C1044.84 729.047 1044.28 728.642 1043.63 728.457Z" fill="white" stroke="#05152B" stroke-linecap="round" stroke-linejoin="round"/>
<path d="M1041.55 710.349C1042.51 712.715 1043.23 715.169 1043.72 717.675C1043.72 719.414 1042.33 745.152 1044.76 744.109C1047.2 743.065 1072.61 726.022 1073.65 723.24C1074.7 720.457 1072.96 703.675 1073.65 699.567C1074.35 695.458 1075.83 689.133 1075.83 689.133C1075.83 689.133 1065.74 699.567 1057.74 704.088C1052.65 706.895 1047.2 709 1041.55 710.349V710.349Z" fill="#B5B5B5" stroke="#05152B" stroke-linecap="round" stroke-linejoin="round"/>
<path d="M1043.63 717.675C1043.63 718.523 1043.31 725.131 1043.24 731.544L1066.22 708.067L1041.85 711.197C1042.68 713.285 1043.28 715.457 1043.63 717.675Z" fill="#05152B" stroke="#05152B" stroke-linecap="round" stroke-linejoin="round"/>
<path d="M1104.2 843.278L1111.15 817.888C1111.15 817.888 1113.33 784.085 1116.85 769.607C1118.86 761.161 1123.15 753.426 1129.24 747.239C1127.5 744.108 1105.94 738.196 1099.3 735.761C1092.67 733.326 1076 727.479 1076 727.479C1076 727.479 1064.18 772.368 1063.48 791.498C1062.78 810.627 1061.74 822.475 1064.52 840.909C1067.31 859.343 1052.37 903.297 1059.68 914.449C1066.98 925.601 1081.83 925.318 1088.63 926.753C1101.67 929.644 1119.41 921.949 1119.76 919.514C1120.11 917.079 1113.93 904.297 1108.72 881.972C1105.62 869.311 1104.1 856.313 1104.2 843.278V843.278Z" fill="#21E6C1" stroke="#05152B" stroke-linecap="round" stroke-linejoin="round"/>
<path d="M1099.22 879.972L1069.98 876.407L1068.55 885.689L1099.94 891.407" stroke="#05152B" stroke-linecap="round" stroke-linejoin="round"/>
<path d="M1008.61 748.847C1004.42 749.738 1000.7 752.146 998.179 755.608C994.483 761.13 965.571 835.452 965.006 839.757C964.441 844.061 968.071 850.8 973.701 853.256C979.332 855.712 981.071 860.625 982.918 857.604C984.766 854.582 1003.2 829.344 1003.2 829.344L1011.18 758.108L1008.61 748.847Z" fill="#21E6C1" stroke="#05152B" stroke-linecap="round" stroke-linejoin="round"/>
<path d="M979.136 816.41C979.136 816.41 961.941 837.909 961.311 842.822C960.68 847.734 960.093 853.256 962.55 856.951C965.006 860.647 976.049 863.082 980.353 861.299C984.658 859.517 992.636 836.735 992.636 836.735L979.136 816.41Z" fill="#21E6C1" stroke="#05152B" stroke-linecap="round" stroke-linejoin="round"/>
<path d="M1042.59 729.848C1038.39 739.276 1035.01 749.052 1032.5 759.065C1028.8 778.004 1026.62 797.209 1025.98 816.497C1025.63 833.192 1023.2 903.124 1022.85 909.058C1022.5 914.993 1017.98 918.101 1011.37 919.493C1006.53 920.279 1001.59 920.279 996.744 919.493C996.744 919.493 1004.05 869.734 1004.4 861.734C1004.74 853.735 1004.74 841.887 1004.74 835.279C1004.74 828.67 1001.5 794.867 1001.24 786.933C1000.98 778.999 1007.57 750.587 1008.61 748.848C1009.66 747.109 1027.63 739.935 1029.03 738.891C1030.42 737.848 1038.76 732.631 1042.59 729.848Z" fill="#21E6C1" stroke="#05152B" stroke-linecap="round" stroke-linejoin="round"/>
<path d="M1004.31 882.842L1016.44 881.407L1018.59 874.994L1005.74 876.407" stroke="#05152B" stroke-linecap="round" stroke-linejoin="round"/>
<path d="M1070.78 846.061C1070.44 852.321 1070.44 855.8 1070.44 855.8" stroke="#05152B" stroke-linecap="round" stroke-linejoin="round"/>
<path d="M1086.52 745.022C1086.63 756.76 1086.78 773.694 1086.78 773.694L1073.91 779.651L1081.57 793.215C1081.57 793.215 1075.2 821.671 1072.24 837.105" stroke="#05152B" stroke-linecap="round" stroke-linejoin="round"/>
<path d="M1086.44 734C1086.44 734.261 1086.44 737.044 1086.44 741.022" stroke="#05152B" stroke-linecap="round" stroke-linejoin="round"/>
<path d="M1019.35 832.453C1016.48 815.606 1011.63 787.955 1011.63 787.955L1023.11 775.781L1015.11 769.521C1015.11 769.521 1017.55 764.651 1019.63 760.825C1021.72 756.999 1030.76 740.652 1030.76 740.652" stroke="#05152B" stroke-linecap="round" stroke-linejoin="round"/>
<path d="M1021.07 842.692C1020.85 841.279 1020.53 839.322 1020.13 836.974" stroke="#05152B" stroke-linecap="round" stroke-linejoin="round"/>
<path d="M1030.11 669.503C1029.03 669.503 1015.46 670.373 1014.74 659.373C1014.42 656.421 1015.13 653.448 1016.76 650.962C1018.38 648.476 1020.82 646.632 1023.66 645.743C1023.66 645.743 1015.18 636.439 1026.09 631.331C1037 626.222 1050 628.896 1050 628.896C1050 628.896 1048.74 620.418 1058.81 622.918C1068.87 625.418 1075.74 636.809 1076.02 637.917C1076.31 639.026 1090.24 643.613 1094.87 650.852C1099.5 658.09 1098.13 667.46 1094.44 673.785C1090.87 679.343 1086.98 684.685 1082.78 689.785C1081.5 690.791 1079.97 691.434 1078.35 691.648C1076.74 691.862 1075.09 691.639 1073.59 691.002C1068.26 688.828 1064.74 687.133 1065.02 682.763C1065.31 678.394 1063.92 666.655 1062.55 665.112C1061.18 663.568 1057.96 662.938 1051.31 664.351C1044.65 665.764 1030.11 669.503 1030.11 669.503Z" fill="#05152B" stroke="#05152B" stroke-linecap="round" stroke-linejoin="round"/>
<path d="M1029.96 666.221C1029.72 670.599 1029.19 674.956 1028.37 679.264C1026.19 689.269 1024.54 699.385 1023.44 709.567C1023 716.088 1029.96 721.305 1033.57 721.544C1037.18 721.783 1043.26 718.545 1048.79 717.458C1054.31 716.371 1069.24 711.154 1071.68 707.675C1074.11 704.197 1074.89 703.154 1074.89 703.154C1074.89 703.154 1086.33 700.98 1088.04 691.633C1089.76 682.285 1083.7 681.111 1079.13 683.372C1076.68 684.552 1074.38 686.011 1072.26 687.72C1072.26 687.72 1069 687.502 1069.55 684.981C1070.01 683.453 1070.35 681.89 1070.57 680.307C1070.7 678.503 1069.68 677.329 1068.5 673.242C1067.33 669.155 1066.57 669.481 1068.24 665.938C1069.91 662.395 1073.28 656.069 1073.28 656.069C1073.28 656.069 1041.87 657.178 1029.96 666.221Z" fill="#B5B5B5" stroke="#05152B" stroke-linecap="round" stroke-linejoin="round"/>
<path d="M1045.22 668.634C1048.29 668.266 1051.4 668.842 1054.13 670.286" stroke="#05152B" stroke-linecap="round" stroke-linejoin="round"/>
<path d="M1035.87 668.025C1035 667.591 1034.04 667.35 1033.07 667.316C1032.09 667.282 1031.12 667.457 1030.22 667.829" stroke="#05152B" stroke-linecap="round" stroke-linejoin="round"/>
<path d="M1032.11 699.545C1032.11 699.545 1036.7 702.045 1042.81 697.697" stroke="#05152B" stroke-linecap="round" stroke-linejoin="round"/>
<path d="M1050.09 675.937C1050.07 676.223 1050 676.503 1049.88 676.76C1049.75 677.018 1049.58 677.248 1049.36 677.438C1049.15 677.627 1048.9 677.773 1048.63 677.866C1048.36 677.96 1048.07 677.999 1047.79 677.981C1047.5 677.962 1047.22 677.888 1046.96 677.761C1046.71 677.635 1046.48 677.459 1046.29 677.244C1046.1 677.029 1045.96 676.779 1045.86 676.508C1045.77 676.238 1045.73 675.951 1045.75 675.666C1045.77 675.38 1045.85 675.101 1045.97 674.845C1046.1 674.588 1046.27 674.359 1046.49 674.17C1046.7 673.981 1046.95 673.837 1047.23 673.745C1047.5 673.653 1047.78 673.615 1048.07 673.633C1048.64 673.672 1049.18 673.937 1049.55 674.368C1049.93 674.8 1050.13 675.364 1050.09 675.937V675.937Z" fill="#05152B"/>
<path d="M1034.11 673.785C1034.09 674.146 1033.96 674.493 1033.74 674.78C1033.52 675.068 1033.22 675.284 1032.88 675.4C1032.54 675.517 1032.17 675.53 1031.82 675.436C1031.47 675.343 1031.15 675.148 1030.92 674.876C1030.68 674.604 1030.53 674.267 1030.48 673.908C1030.43 673.549 1030.49 673.185 1030.65 672.861C1030.81 672.537 1031.07 672.268 1031.38 672.088C1031.7 671.908 1032.06 671.825 1032.42 671.851C1032.66 671.864 1032.89 671.926 1033.1 672.031C1033.32 672.136 1033.51 672.283 1033.67 672.463C1033.83 672.643 1033.95 672.852 1034.02 673.079C1034.1 673.307 1034.13 673.546 1034.11 673.785V673.785Z" fill="#05152B"/>
<path d="M1037.22 674.307C1037.22 674.307 1022.83 685.807 1024 689.893C1025.18 693.98 1037.24 693.698 1037.24 693.698" fill="#B5B5B5"/>
<path d="M1037.22 674.307C1037.22 674.307 1022.83 685.807 1024 689.893C1025.18 693.98 1037.24 693.698 1037.24 693.698" stroke="#05152B" stroke-linecap="round" stroke-linejoin="round"/>
<path d="M986.505 795.519L994.483 788.15C994.483 788.15 1003.7 792.498 1003.18 796.845C1002.66 801.193 986.505 795.519 986.505 795.519Z" fill="#B5B5B5" stroke="#05152B" stroke-linecap="round" stroke-linejoin="round"/>
<path d="M982.788 798.954L990.788 791.585C990.788 791.585 1000 795.932 999.374 800.28C998.744 804.628 982.788 798.954 982.788 798.954Z" fill="#B5B5B5" stroke="#05152B" stroke-linecap="round" stroke-linejoin="round"/>
<path d="M1013.09 796.737C1013.09 796.737 1013.87 790.215 1016.79 790.215C1019.7 790.215 1022.33 792.063 1021.55 795.498C1020.9 797.963 1020.01 800.358 1018.9 802.65L1013.09 796.737Z" fill="#B5B5B5" stroke="#05152B" stroke-linecap="round" stroke-linejoin="round"/>
<path d="M994.483 788.15C994.483 788.15 994.483 785.085 1001.24 786.933C1008 788.781 1011.68 796.15 1009.83 799.215C1007.98 802.28 1003.09 796.759 1003.09 796.759C1003.09 796.759 1000.63 789.998 994.483 788.15Z" fill="#B5B5B5" stroke="#05152B" stroke-linecap="round" stroke-linejoin="round"/>
<path d="M960.615 794.085L990.288 860.691L1043.85 865.016L1018.53 796.976L960.615 794.085Z" fill="#05152B" stroke="#05152B" stroke-linecap="round" stroke-linejoin="round"/>
<path d="M1116.13 741.609C1116.13 741.609 1104.87 746.087 1102.67 754.021C1100.48 761.956 1102.67 837.3 1102.67 837.3L1051.7 834.844L1049.85 858.169L1112.59 874.147C1112.59 874.147 1121.72 876.103 1126.19 870.234C1130.67 864.364 1136.87 781.107 1137.63 772.216C1138.39 763.325 1139.02 750.652 1131.33 746.543C1126.74 743.689 1121.52 741.995 1116.13 741.609V741.609Z" fill="#21E6C1" stroke="#05152B" stroke-linecap="round" stroke-linejoin="round"/>
<path d="M1102.59 837.3C1102.59 837.3 1112.07 839.3 1117.07 843.583" stroke="#05152B" stroke-linecap="round" stroke-linejoin="round"/>
<path d="M1051.61 834.844C1051.61 834.844 1049.15 836.061 1042.39 831.148C1038.8 828.354 1034.59 826.46 1030.11 825.627L1031.33 832.387C1031.33 832.387 1011.07 834.844 1009.22 836.735C1007.37 838.626 1005.55 843.496 1010.46 845.43C1015.37 847.365 1016.59 845.43 1018.44 848.495C1021.7 852.542 1025.92 855.711 1030.72 857.712C1034.42 858.93 1050.29 852.799 1050.29 852.799L1051.61 834.844Z" fill="#B5B5B5" stroke="#05152B" stroke-linecap="round" stroke-linejoin="round"/>
</g>
<defs>
<filter id="filter0_d" x="0.886047" y="0.401001" width="1363.18" height="1373.43" filterUnits="userSpaceOnUse" color-interpolation-filters="sRGB">
<feFlood flood-opacity="0" result="BackgroundImageFix"/>
<feColorMatrix in="SourceAlpha" type="matrix" values="0 0 0 0 0 0 0 0 0 0 0 0 0 0 0 0 0 0 127 0" result="hardAlpha"/>
<feOffset dy="4"/>
<feGaussianBlur stdDeviation="100"/>
<feComposite in2="hardAlpha" operator="out"/>
<feColorMatrix type="matrix" values="0 0 0 0 0.129412 0 0 0 0 0.901961 0 0 0 0 0.756863 0 0 0 1 0"/>
<feBlend mode="normal" in2="BackgroundImageFix" result="effect1_dropShadow"/>
<feBlend mode="normal" in="SourceGraphic" in2="effect1_dropShadow" result="shape"/>
</filter>
</defs>
</svg>
